<?xml version="1.0" standalone="no"?>
<!DOCTYPE svg PUBLIC "-//W3C//DTD SVG 1.1//EN" "http://www.w3.org/Graphics/SVG/1.1/DTD/svg11.dtd" >
<svg>
<metadata>
Created by FontForge 20090622 at Tue Sep 22 22:28:05 2015
 By deploy user
(c) 1996-2015 Typodermic Fonts Inc. See attached license agreement. If agreement is missing visit typodermicfonts.com for more info.
</metadata>
<defs>
<font id="Stormfaze-Regular" horiz-adv-x="679" >
  <font-face 
    font-family="Stormfaze"
    font-weight="400"
    font-stretch="normal"
    units-per-em="1000"
    panose-1="4 3 6 4 2 11 2 2 10 4"
    ascent="729"
    descent="-271"
    cap-height="700"
    bbox="-179 -271 1213 929"
    underline-thickness="20"
    underline-position="-123"
    unicode-range="U+0017-U+25CA"
  />
<missing-glyph horiz-adv-x="455" 
 />
    <glyph glyph-name=".notdef" horiz-adv-x="455" 
 />
    <glyph glyph-name="space" unicode=" " horiz-adv-x="350" 
 />
    <glyph glyph-name="exclam" unicode="!" horiz-adv-x="321" 
d="M245 184v-184h-169v184h169zM255 700v-432h-189v432h189z" />
    <glyph glyph-name="quotedbl" unicode="&#x22;" horiz-adv-x="502" 
d="M41 429zM210 700v-271h-169v271h169zM461 700v-271h-169v271h169z" />
    <glyph glyph-name="numbersign" unicode="#" horiz-adv-x="618" 
d="M256 701v-175h106v175h114v-175h93v-114h-93v-126h93v-114h-93v-172h-114v172h-106v-172h-114v172h-93v114h93v126h-93v114h93v175h114zM256 286h106v126h-106v-126z" />
    <glyph glyph-name="dollar" unicode="$" horiz-adv-x="649" 
d="M387 800v-100h177v-183h-293q-36 0 -36 -38v-21q0 -36 33 -36h152q92 0 131.5 -42.5t39.5 -121.5v-72q0 -186 -189 -186h-15v-100h-118v100h-200v184h308q36 0 36 38v21q0 18 -7 27t-26 9h-162q-43 0 -73.5 11.5t-50 32t-28.5 48t-9 59.5v84q0 186 189 186h23v100h118z
" />
    <glyph glyph-name="percent" unicode="%" horiz-adv-x="928" 
d="M52 0zM286 700q73 0 73 -73v-239q0 -73 -73 -73h-161q-73 0 -73 73v239q0 73 73 73h161zM156 437q0 -21 19 -21h60q20 0 20 21v141q0 21 -20 21h-60q-19 0 -19 -21v-141zM739 700l-420 -700h-129l420 700h129zM803 385q73 0 73 -73v-239q0 -73 -73 -73h-161q-73 0 -73 73
v239q0 73 73 73h161zM673 122q0 -21 19 -21h60q20 0 20 21v141q0 21 -20 21h-60q-19 0 -19 -21v-141z" />
    <glyph glyph-name="ampersand" unicode="&#x26;" horiz-adv-x="618" 
d="M378 700v-176h-99q-36 0 -36 -38v-21q0 -15 6.5 -25.5t26.5 -10.5h328v-158h-54v-208q0 -63 -62 -63h-246q-189 0 -189 186v57q0 48 17 77.5t46 40.5q-26 15 -38.5 38.5t-12.5 73.5v41q0 186 189 186h124zM231 214q0 -38 36 -38h106q15 0 15 17v78h-125
q-19 0 -25.5 -10.5t-6.5 -25.5v-21z" />
    <glyph glyph-name="quotesingle" unicode="'" horiz-adv-x="251" 
d="M210 700v-271h-169v271h169z" />
    <glyph glyph-name="parenleft" unicode="(" horiz-adv-x="380" 
d="M344 929v-114h-53q-38 0 -57.5 -27.5t-19.5 -73.5v-770q0 -48 19.5 -74.5t57.5 -26.5h53v-114h-55q-50 0 -86.5 15t-60 42.5t-35 66t-11.5 86.5v780q0 48 11.5 86.5t35 66t60 42.5t86.5 15h55z" />
    <glyph glyph-name="parenright" unicode=")" horiz-adv-x="380" 
d="M91 929q50 0 86.5 -15t60 -42.5t35 -66t11.5 -86.5v-780q0 -48 -11.5 -86.5t-35 -66t-60 -42.5t-86.5 -15h-55v114h53q38 0 57.5 26.5t19.5 74.5v770q0 46 -19.5 73.5t-57.5 27.5h-53v114h55z" />
    <glyph glyph-name="asterisk" unicode="*" horiz-adv-x="742" 
d="M314 494v160h114v-160l111 120l81 -81l-132 -127h188v-114h-188l132 -127l-81 -81l-111 120v-160h-114v160l-111 -120l-81 81l132 127h-188v114h188l-132 127l81 81z" />
    <glyph glyph-name="plus" unicode="+" horiz-adv-x="742" 
d="M428 654v-248h248v-114h-248v-248h-114v248h-248v114h248v248h114z" />
    <glyph glyph-name="comma" unicode="," horiz-adv-x="301" 
d="M235 184v-79q0 -78 -36.5 -120t-100.5 -42h-32v241h169z" />
    <glyph glyph-name="hyphen" unicode="-" horiz-adv-x="278" 
d="M256 437v-166h-235v166h235z" />
    <glyph glyph-name="period" unicode="." horiz-adv-x="301" 
d="M235 184v-184h-169v184h169z" />
    <glyph glyph-name="slash" unicode="/" horiz-adv-x="452" 
d="M452 829l-300 -1000h-152l300 1000h152z" />
    <glyph glyph-name="zero" unicode="0" horiz-adv-x="685" 
d="M489 700q132 0 132 -133v-434q0 -133 -132 -133h-293q-132 0 -132 133v434q0 133 132 133h293zM253 221q0 -37 35 -37h109q35 0 35 37v258q0 37 -35 37h-109q-35 0 -35 -37v-258z" />
    <glyph glyph-name="one" unicode="1" horiz-adv-x="348" 
d="M220 700q62 0 62 -63v-637h-189v499q0 17 -15 17h-52v184h194z" />
    <glyph glyph-name="two" unicode="2" horiz-adv-x="647" 
d="M402 700q189 0 189 -186v-84q0 -32 -9 -59.5t-28.5 -48t-50 -32t-73.5 -11.5h-162q-19 0 -26 -9t-7 -27v-43q0 -16 13 -16h333v-184h-434q-90 0 -90 92v166q0 79 39.5 121.5t131.5 42.5h152q33 0 33 36v21q0 38 -36 38h-292v183h317z" />
    <glyph glyph-name="three" unicode="3" horiz-adv-x="630" 
d="M376 700q189 0 189 -186v-41q0 -50 -12.5 -73.5t-38.5 -38.5q29 -11 46 -40.5t17 -77.5v-57q0 -186 -189 -186h-328v180h301q36 0 36 38v17q0 15 -6.5 25.5t-25.5 10.5h-297v158h284q20 0 26.5 10.5t6.5 25.5v17q0 38 -36 38h-289v180h316z" />
    <glyph glyph-name="four" unicode="4" horiz-adv-x="632" 
d="M535 701l-241 -360v-4h280v-337h-189v170h-286q-62 0 -62 63v50q0 14 3.5 24.5t11.5 22.5l255 371h228z" />
    <glyph glyph-name="five" unicode="5" horiz-adv-x="647" 
d="M566 700v-183h-319q-10 0 -10 -12v-66q0 -11 10 -11h175q171 0 171 -164v-78q0 -186 -189 -186h-343v184h318q36 0 36 38v21q0 18 -7 27t-26 9h-256q-67 0 -67 70v286q0 65 67 65h440z" />
    <glyph glyph-name="six" unicode="6" horiz-adv-x="650" 
d="M559 700v-183h-283q-36 0 -36 -38v-257q0 -38 36 -38h106q36 0 36 38v21q0 18 -7 27t-26 9h-114v149h154q92 0 131.5 -42.5t39.5 -121.5v-78q0 -186 -189 -186h-156q-189 0 -189 186v328q0 186 189 186h308z" />
    <glyph glyph-name="seven" unicode="7" horiz-adv-x="557" 
d="M471 700q62 0 62 -63v-68q0 -14 -4 -29t-10 -29l-223 -511h-217l231 513v4h-284v183h445z" />
    <glyph glyph-name="eight" unicode="8" horiz-adv-x="669" 
d="M415 700q189 0 189 -186v-41q0 -50 -12.5 -73.5t-38.5 -38.5q29 -11 46 -40.5t17 -77.5v-57q0 -186 -189 -186h-185q-189 0 -189 186v57q0 48 17 77.5t46 40.5q-26 15 -38.5 38.5t-12.5 73.5v41q0 186 189 186h161zM231 214q0 -38 36 -38h135q36 0 36 38v21
q0 15 -6.5 25.5t-25.5 10.5h-143q-19 0 -25.5 -10.5t-6.5 -25.5v-21zM243 465q0 -15 6.5 -25.5t26.5 -10.5h117q20 0 26.5 10.5t6.5 25.5v21q0 38 -36 38h-111q-36 0 -36 -38v-21z" />
    <glyph glyph-name="nine" unicode="9" horiz-adv-x="650" 
d="M399 700q189 0 189 -186v-328q0 -186 -189 -186h-318v184h290q36 0 36 38v256q0 38 -36 38h-103q-36 0 -36 -38v-21q0 -18 7 -27t26 -9h111v-148h-151q-92 0 -131.5 42.5t-39.5 121.5v77q0 186 189 186h156z" />
    <glyph glyph-name="colon" unicode=":" horiz-adv-x="331" 
d="M250 274v-184h-169v184h169zM250 574v-184h-169v184h169z" />
    <glyph glyph-name="semicolon" unicode=";" horiz-adv-x="331" 
d="M250 574v-184h-169v184h169zM250 274v-79q0 -78 -36.5 -120t-100.5 -42h-32v241h169z" />
    <glyph glyph-name="less" unicode="&#x3c;" horiz-adv-x="742" 
d="M676 606v-114l-486 -141v-2l486 -141v-114l-577 170q-33 10 -33 48v76q0 38 33 48z" />
    <glyph glyph-name="equal" unicode="=" horiz-adv-x="742" 
d="M676 256v-114h-610v114h610zM676 556v-114h-610v114h610z" />
    <glyph glyph-name="greater" unicode="&#x3e;" horiz-adv-x="742" 
d="M643 436q33 -10 33 -48v-76q0 -38 -33 -48l-577 -170v114l486 141v2l-486 141v114z" />
    <glyph glyph-name="question" unicode="?" horiz-adv-x="568" 
d="M329 184v-184h-169v184h169zM343 700q189 0 189 -186v-36q0 -31 -3.5 -55.5t-14.5 -46t-32 -40t-55 -37.5l-57 -31h-189l110 103q14 14 23.5 30.5t9.5 37.5v40q0 38 -36 38h-262v183h317z" />
    <glyph glyph-name="at" unicode="@" horiz-adv-x="781" 
d="M525 700q103 0 148 -50t45 -140v-287q0 -91 -45 -141t-148 -50h-65q-103 0 -147.5 50t-44.5 141v38q0 90 44.5 140t147.5 50h110v-115h-108q-41 0 -58.5 -17.5t-17.5 -62.5v-28q0 -45 17.5 -62.5t58.5 -17.5h61q41 0 59 17.5t18 62.5v277q0 45 -18 63t-59 18h-265
q-41 0 -59 -18t-18 -63v-519q0 -45 18 -62.5t59 -17.5h447v-116h-449q-103 0 -148 50t-45 141v529q0 90 45 140t148 50h269z" />
    <glyph glyph-name="A" unicode="A" horiz-adv-x="692" 
d="M412 700q26 0 34 -22l230 -678h-414l47 184h110l-77 262h-4l-121 -446h-201l214 678q7 22 32 22h150z" />
    <glyph glyph-name="B" unicode="B" horiz-adv-x="666" 
d="M412 700q189 0 189 -186v-41q0 -50 -12.5 -73.5t-38.5 -38.5q29 -11 46 -40.5t17 -77.5v-57q0 -186 -189 -186h-298q-62 0 -62 63v575q0 62 62 62h286zM253 193q0 -17 15 -17h131q36 0 36 38v21q0 15 -6.5 25.5t-25.5 10.5h-119v158h106q20 0 26.5 10.5t6.5 25.5v21
q0 38 -36 38h-119q-15 0 -15 -17v-314z" />
    <glyph glyph-name="C" unicode="C" horiz-adv-x="573" 
d="M519 700v-183h-156q-65 0 -93.5 -28t-28.5 -101v-75q0 -73 28.5 -101t93.5 -28h156v-184h-159q-82 0 -140.5 20.5t-95.5 59.5t-54.5 95.5t-17.5 128.5v92q0 72 17.5 128.5t54.5 95.5t95.5 59.5t140.5 20.5h159z" />
    <glyph glyph-name="D" unicode="D" horiz-adv-x="685" 
d="M325 700q82 0 140.5 -20.5t95.5 -59.5t54.5 -95.5t17.5 -128.5v-92q0 -72 -17.5 -128.5t-54.5 -95.5t-95.5 -59.5t-140.5 -20.5h-197q-62 0 -62 62v576q0 62 62 62h197zM255 201q0 -17 15 -17h52q65 0 93.5 28t28.5 101v75q0 73 -28.5 101t-93.5 28h-52q-15 0 -15 -17
v-299z" />
    <glyph glyph-name="E" unicode="E" horiz-adv-x="580" 
d="M521 700v-183h-253q-15 0 -15 -17v-299q0 -17 15 -17h253v-184h-395q-62 0 -62 63v575q0 62 62 62h395zM519 437v-166h-235v166h235z" />
    <glyph glyph-name="F" unicode="F" horiz-adv-x="564" 
d="M522 700v-183h-253q-15 0 -15 -17v-500h-189v638q0 62 62 62h395zM520 437v-166h-235v166h235z" />
    <glyph glyph-name="G" unicode="G" horiz-adv-x="636" 
d="M555 700v-183h-196q-65 0 -93.5 -28t-28.5 -101v-80q0 -73 28.5 -101t93.5 -28h18q15 0 15 17v161h184v-294q0 -63 -62 -63h-154q-82 0 -140.5 20.5t-95.5 59.5t-54.5 95.5t-17.5 128.5v92q0 72 17.5 128.5t54.5 95.5t95.5 59.5t140.5 20.5h195z" />
    <glyph glyph-name="H" unicode="H" horiz-adv-x="709" 
d="M643 700v-700h-189v271h-168v166h168v263h189zM255 700v-700h-189v700h189z" />
    <glyph glyph-name="I" unicode="I" horiz-adv-x="321" 
d="M255 700v-700h-189v700h189z" />
    <glyph glyph-name="J" unicode="J" horiz-adv-x="511" 
d="M453 700v-396q0 -72 -17.5 -128.5t-54.5 -95.5t-95.5 -59.5t-140.5 -20.5h-119v184h116q65 0 93.5 28t28.5 101v387h189z" />
    <glyph glyph-name="K" unicode="K" horiz-adv-x="656" 
d="M612 700l-124 -334l139 -366h-196l-95 243q-11 28 -37 28h-13v158h15q25 0 35 28l84 243h192zM255 700v-700h-189v700h189z" />
    <glyph glyph-name="L" unicode="L" horiz-adv-x="549" 
d="M255 700v-499q0 -17 15 -17h253v-184h-395q-62 0 -62 63v637h189z" />
    <glyph glyph-name="M" unicode="M" horiz-adv-x="960" 
d="M392 700q37 0 58.5 -16.5t29.5 -36.5q8 20 29.5 36.5t58.5 16.5h199q132 0 132 -133v-567h-189v479q0 37 -35 37h-69q-35 0 -35 -37v-479h-91h-91v479q0 37 -35 37h-69q-35 0 -35 -37v-479h-189v567q0 133 132 133h199z" />
    <glyph glyph-name="N" unicode="N" horiz-adv-x="690" 
d="M217 700q48 0 71 -44l150 -287h4v331h184v-657q0 -18 -10 -30.5t-27 -12.5h-89q-46 0 -71 44l-177 304h-4v-348h-184v657q0 18 10 30.5t27 12.5h116z" />
    <glyph glyph-name="O" unicode="O" horiz-adv-x="706" 
d="M52 406q0 72 16 128.5t52 95.5t93.5 59.5t139.5 20.5t139.5 -20.5t93.5 -59.5t52 -95.5t16 -128.5v-112q0 -72 -16 -128.5t-52 -95.5t-93.5 -59.5t-139.5 -20.5t-139.5 20.5t-93.5 59.5t-52 95.5t-16 128.5v112zM241 302q0 -36 5.5 -61t18.5 -40t34.5 -21.5t53.5 -6.5
t53.5 6.5t34.5 21.5t18.5 40t5.5 61v96q0 36 -5.5 61t-18.5 40t-34.5 21.5t-53.5 6.5t-53.5 -6.5t-34.5 -21.5t-18.5 -40t-5.5 -61v-96z" />
    <glyph glyph-name="P" unicode="P" horiz-adv-x="639" 
d="M414 700q189 0 189 -186v-41q0 -92 -47 -147t-142 -55h-128v158h106q20 0 26.5 10.5t6.5 25.5v21q0 38 -36 38h-119q-15 0 -15 -17v-507h-189v638q0 62 62 62h286z" />
    <glyph glyph-name="Q" unicode="Q" horiz-adv-x="695" 
d="M52 406q0 71 16 127.5t52 95.5t93.5 60t140.5 21q82 0 136 -20.5t86 -59.5t45 -95.5t13 -128.5v-61q0 -48 -17.5 -80.5t-42.5 -49.5h-180q20 14 35.5 41t15.5 80v62q0 36 -4 61t-15 40t-30 21.5t-49 6.5t-50.5 -6.5t-32.5 -21.5t-17.5 -40t-5.5 -61v-86
q0 -73 28.5 -100.5t93.5 -27.5h285v-184h-288q-82 0 -140.5 20.5t-95.5 59.5t-54.5 95.5t-17.5 128.5v102z" />
    <glyph glyph-name="R" unicode="R" horiz-adv-x="676" 
d="M414 700q189 0 189 -186v-41q0 -50 -12.5 -73.5t-38.5 -38.5q29 -11 48.5 -40.5t19.5 -77.5v-243h-188v235q0 15 -6.5 25.5t-25.5 10.5h-114v158h106q20 0 26.5 10.5t6.5 25.5v21q0 38 -36 38h-119q-15 0 -15 -17v-507h-189v638q0 62 62 62h286z" />
    <glyph glyph-name="S" unicode="S" horiz-adv-x="640" 
d="M560 700v-183h-293q-36 0 -36 -38v-21q0 -36 33 -36h152q92 0 131.5 -42.5t39.5 -121.5v-72q0 -186 -189 -186h-333v184h308q36 0 36 38v21q0 18 -7 27t-26 9h-162q-43 0 -73.5 11.5t-50 32t-28.5 48t-9 59.5v84q0 186 189 186h318z" />
    <glyph glyph-name="T" unicode="T" horiz-adv-x="588" 
d="M562 700v-183h-536v183h536zM389 486v-486h-189v486h189z" />
    <glyph glyph-name="U" unicode="U" 
d="M250 700v-479q0 -37 35 -37h109q35 0 35 37v479h189v-567q0 -133 -132 -133h-293q-132 0 -132 133v567h189z" />
    <glyph glyph-name="V" unicode="V" horiz-adv-x="680" 
d="M222 700l116 -438h4l121 438h201l-218 -678q-7 -22 -32 -22h-150q-26 0 -34 22l-214 678h206z" />
    <glyph glyph-name="W" unicode="W" horiz-adv-x="960" 
d="M250 700v-479q0 -37 35 -37h69q35 0 35 37v479h91h91v-479q0 -37 35 -37h69q35 0 35 37v479h189v-567q0 -133 -132 -133h-199q-37 0 -58.5 16.5t-29.5 36.5q-8 -20 -29.5 -36.5t-58.5 -16.5h-199q-132 0 -132 133v567h189z" />
    <glyph glyph-name="X" unicode="X" horiz-adv-x="680" 
d="M257 700l84 -167l84 167h203l-170 -316l204 -384h-213l-114 218l-114 -218h-203l203 371l-177 329h213z" />
    <glyph glyph-name="Y" unicode="Y" horiz-adv-x="649" 
d="M419 240v-240h-189v240h189zM235 700v-225q0 -37 35 -37h109q35 0 35 37v225h189v-296q0 -133 -132 -133h-293q-132 0 -132 133v296h189z" />
    <glyph glyph-name="Z" unicode="Z" horiz-adv-x="628" 
d="M508 700q62 0 62 -63v-68q0 -14 -3 -24.5t-12 -22.5l-241 -334v-4h263v-184h-464q-62 0 -62 63v68q0 14 3 24.5t12 22.5l254 335v4h-257v183h445z" />
    <glyph glyph-name="bracketleft" unicode="[" horiz-adv-x="410" 
d="M374 929v-114h-149q-11 0 -11 -11v-950q0 -11 11 -11h149v-114h-183q-52 0 -73.5 24.5t-21.5 75.5v1000q0 51 21.5 75.5t73.5 24.5h183z" />
    <glyph glyph-name="backslash" unicode="\" horiz-adv-x="452" 
d="M152 829l300 -1000h-152l-300 1000h152z" />
    <glyph glyph-name="bracketright" unicode="]" horiz-adv-x="410" 
d="M219 929q52 0 73.5 -24.5t21.5 -75.5v-1000q0 -51 -21.5 -75.5t-73.5 -24.5h-183v114h149q11 0 11 11v950q0 11 -11 11h-149v114h183z" />
    <glyph glyph-name="asciicircum" unicode="^" horiz-adv-x="526" 
d="M301 700q38 0 48 -33l105 -357h-113l-77 266h-2l-77 -266h-113l105 357q10 33 48 33h76z" />
    <glyph glyph-name="underscore" unicode="_" horiz-adv-x="677" 
d="M680 -57v-114h-680v114h680z" />
    <glyph glyph-name="grave" unicode="`" horiz-adv-x="441" 
d="M275 929l100 -164h-169l-140 164h209z" />
    <glyph glyph-name="a" unicode="a" horiz-adv-x="692" 
d="M16 0zM412 700q26 0 34 -22l230 -678h-414l47 184h110l-77 262h-4l-121 -446h-201l214 678q7 22 32 22h150z" />
    <glyph glyph-name="b" unicode="b" horiz-adv-x="666" 
d="M64 0zM412 700q189 0 189 -186v-41q0 -50 -12.5 -73.5t-38.5 -38.5q29 -11 46 -40.5t17 -77.5v-57q0 -186 -189 -186h-298q-62 0 -62 63v575q0 62 62 62h286zM253 193q0 -17 15 -17h131q36 0 36 38v21q0 15 -6.5 25.5t-25.5 10.5h-119v158h106q20 0 26.5 10.5t6.5 25.5
v21q0 38 -36 38h-119q-15 0 -15 -17v-314z" />
    <glyph glyph-name="c" unicode="c" horiz-adv-x="573" 
d="M52 0zM519 700v-183h-156q-65 0 -93.5 -28t-28.5 -101v-75q0 -73 28.5 -101t93.5 -28h156v-184h-159q-82 0 -140.5 20.5t-95.5 59.5t-54.5 95.5t-17.5 128.5v92q0 72 17.5 128.5t54.5 95.5t95.5 59.5t140.5 20.5h159z" />
    <glyph glyph-name="d" unicode="d" horiz-adv-x="685" 
d="M66 0zM325 700q82 0 140.5 -20.5t95.5 -59.5t54.5 -95.5t17.5 -128.5v-92q0 -72 -17.5 -128.5t-54.5 -95.5t-95.5 -59.5t-140.5 -20.5h-197q-62 0 -62 62v576q0 62 62 62h197zM255 201q0 -17 15 -17h52q65 0 93.5 28t28.5 101v75q0 73 -28.5 101t-93.5 28h-52
q-15 0 -15 -17v-299z" />
    <glyph glyph-name="e" unicode="e" horiz-adv-x="580" 
d="M64 0zM521 700v-183h-253q-15 0 -15 -17v-299q0 -17 15 -17h253v-184h-395q-62 0 -62 63v575q0 62 62 62h395zM519 437v-166h-235v166h235z" />
    <glyph glyph-name="f" unicode="f" horiz-adv-x="564" 
d="M65 0zM522 700v-183h-253q-15 0 -15 -17v-500h-189v638q0 62 62 62h395zM520 437v-166h-235v166h235z" />
    <glyph glyph-name="g" unicode="g" horiz-adv-x="636" 
d="M52 0zM555 700v-183h-196q-65 0 -93.5 -28t-28.5 -101v-80q0 -73 28.5 -101t93.5 -28h18q15 0 15 17v161h184v-294q0 -63 -62 -63h-154q-82 0 -140.5 20.5t-95.5 59.5t-54.5 95.5t-17.5 128.5v92q0 72 17.5 128.5t54.5 95.5t95.5 59.5t140.5 20.5h195z" />
    <glyph glyph-name="h" unicode="h" horiz-adv-x="709" 
d="M66 0zM643 700v-700h-189v271h-168v166h168v263h189zM255 700v-700h-189v700h189z" />
    <glyph glyph-name="i" unicode="i" horiz-adv-x="321" 
d="M66 0zM255 700v-700h-189v700h189z" />
    <glyph glyph-name="j" unicode="j" horiz-adv-x="511" 
d="M26 0zM453 700v-396q0 -72 -17.5 -128.5t-54.5 -95.5t-95.5 -59.5t-140.5 -20.5h-119v184h116q65 0 93.5 28t28.5 101v387h189z" />
    <glyph glyph-name="k" unicode="k" horiz-adv-x="656" 
d="M66 0zM612 700l-124 -334l139 -366h-196l-95 243q-11 28 -37 28h-13v158h15q25 0 35 28l84 243h192zM255 700v-700h-189v700h189z" />
    <glyph glyph-name="l" unicode="l" horiz-adv-x="549" 
d="M66 0zM255 700v-499q0 -17 15 -17h253v-184h-395q-62 0 -62 63v637h189z" />
    <glyph glyph-name="m" unicode="m" horiz-adv-x="960" 
d="M61 0zM392 700q37 0 58.5 -16.5t29.5 -36.5q8 20 29.5 36.5t58.5 16.5h199q132 0 132 -133v-567h-189v479q0 37 -35 37h-69q-35 0 -35 -37v-479h-91h-91v479q0 37 -35 37h-69q-35 0 -35 -37v-479h-189v567q0 133 132 133h199z" />
    <glyph glyph-name="n" unicode="n" horiz-adv-x="690" 
d="M64 0zM217 700q48 0 71 -44l150 -287h4v331h184v-657q0 -18 -10 -30.5t-27 -12.5h-89q-46 0 -71 44l-177 304h-4v-348h-184v657q0 18 10 30.5t27 12.5h116z" />
    <glyph glyph-name="o" unicode="o" horiz-adv-x="706" 
d="M52 0zM52 406q0 72 16 128.5t52 95.5t93.5 59.5t139.5 20.5t139.5 -20.5t93.5 -59.5t52 -95.5t16 -128.5v-112q0 -72 -16 -128.5t-52 -95.5t-93.5 -59.5t-139.5 -20.5t-139.5 20.5t-93.5 59.5t-52 95.5t-16 128.5v112zM241 302q0 -36 5.5 -61t18.5 -40t34.5 -21.5
t53.5 -6.5t53.5 6.5t34.5 21.5t18.5 40t5.5 61v96q0 36 -5.5 61t-18.5 40t-34.5 21.5t-53.5 6.5t-53.5 -6.5t-34.5 -21.5t-18.5 -40t-5.5 -61v-96z" />
    <glyph glyph-name="p" unicode="p" horiz-adv-x="639" 
d="M66 0zM414 700q189 0 189 -186v-41q0 -92 -47 -147t-142 -55h-128v158h106q20 0 26.5 10.5t6.5 25.5v21q0 38 -36 38h-119q-15 0 -15 -17v-507h-189v638q0 62 62 62h286z" />
    <glyph glyph-name="q" unicode="q" horiz-adv-x="695" 
d="M52 0zM52 406q0 71 16 127.5t52 95.5t93.5 60t140.5 21q82 0 136 -20.5t86 -59.5t45 -95.5t13 -128.5v-61q0 -48 -17.5 -80.5t-42.5 -49.5h-180q20 14 35.5 41t15.5 80v62q0 36 -4 61t-15 40t-30 21.5t-49 6.5t-50.5 -6.5t-32.5 -21.5t-17.5 -40t-5.5 -61v-86
q0 -73 28.5 -100.5t93.5 -27.5h285v-184h-288q-82 0 -140.5 20.5t-95.5 59.5t-54.5 95.5t-17.5 128.5v102z" />
    <glyph glyph-name="r" unicode="r" horiz-adv-x="676" 
d="M66 0zM414 700q189 0 189 -186v-41q0 -50 -12.5 -73.5t-38.5 -38.5q29 -11 48.5 -40.5t19.5 -77.5v-243h-188v235q0 15 -6.5 25.5t-25.5 10.5h-114v158h106q20 0 26.5 10.5t6.5 25.5v21q0 38 -36 38h-119q-15 0 -15 -17v-507h-189v638q0 62 62 62h286z" />
    <glyph glyph-name="s" unicode="s" horiz-adv-x="640" 
d="M53 0zM560 700v-183h-293q-36 0 -36 -38v-21q0 -36 33 -36h152q92 0 131.5 -42.5t39.5 -121.5v-72q0 -186 -189 -186h-333v184h308q36 0 36 38v21q0 18 -7 27t-26 9h-162q-43 0 -73.5 11.5t-50 32t-28.5 48t-9 59.5v84q0 186 189 186h318z" />
    <glyph glyph-name="t" unicode="t" horiz-adv-x="588" 
d="M26 0zM562 700v-183h-536v183h536zM389 486v-486h-189v486h189z" />
    <glyph glyph-name="u" unicode="u" 
d="M61 0zM250 700v-479q0 -37 35 -37h109q35 0 35 37v479h189v-567q0 -133 -132 -133h-293q-132 0 -132 133v567h189z" />
    <glyph glyph-name="v" unicode="v" horiz-adv-x="680" 
d="M16 0zM222 700l116 -438h4l121 438h201l-218 -678q-7 -22 -32 -22h-150q-26 0 -34 22l-214 678h206z" />
    <glyph glyph-name="w" unicode="w" horiz-adv-x="960" 
d="M61 0zM250 700v-479q0 -37 35 -37h69q35 0 35 37v479h91h91v-479q0 -37 35 -37h69q35 0 35 37v479h189v-567q0 -133 -132 -133h-199q-37 0 -58.5 16.5t-29.5 36.5q-8 -20 -29.5 -36.5t-58.5 -16.5h-199q-132 0 -132 133v567h189z" />
    <glyph glyph-name="x" unicode="x" horiz-adv-x="680" 
d="M18 0zM257 700l84 -167l84 167h203l-170 -316l204 -384h-213l-114 218l-114 -218h-203l203 371l-177 329h213z" />
    <glyph glyph-name="y" unicode="y" horiz-adv-x="649" 
d="M46 0zM419 240v-240h-189v240h189zM235 700v-225q0 -37 35 -37h109q35 0 35 37v225h189v-296q0 -133 -132 -133h-293q-132 0 -132 133v296h189z" />
    <glyph glyph-name="z" unicode="z" horiz-adv-x="628" 
d="M51 0zM508 700q62 0 62 -63v-68q0 -14 -3 -24.5t-12 -22.5l-241 -334v-4h263v-184h-464q-62 0 -62 63v68q0 14 3 24.5t12 22.5l254 335v4h-257v183h445z" />
    <glyph glyph-name="braceleft" unicode="{" horiz-adv-x="332" 
d="M296 929v-114h-59q-11 0 -11 -11v-399q0 -23 -9 -44t-38 -32q29 -11 38 -32t9 -44v-399q0 -11 11 -11h59v-114h-93q-52 0 -73.5 24.5t-21.5 75.5v438q0 21 -18 21h-36v82h36q18 0 18 21v438q0 51 21.5 75.5t73.5 24.5h93z" />
    <glyph glyph-name="bar" unicode="|" horiz-adv-x="366" 
d="M242 929v-1200h-118v1200h118z" />
    <glyph glyph-name="braceright" unicode="}" horiz-adv-x="332" 
d="M129 929q52 0 73.5 -24.5t21.5 -75.5v-438q0 -21 18 -21h36v-82h-36q-18 0 -18 -21v-438q0 -51 -21.5 -75.5t-73.5 -24.5h-93v114h59q11 0 11 11v399q0 23 9 44t38 32q-29 11 -38 32t-9 44v399q0 11 -11 11h-59v114h93z" />
    <glyph glyph-name="asciitilde" unicode="~" horiz-adv-x="742" 
d="M66 375q23 29 60.5 45t88.5 16q48 0 85.5 -12.5t70.5 -28t66 -28t73 -12.5q39 0 80 17t76 62h10v-123q-27 -29 -72 -45t-94 -16q-45 0 -80 12t-68 27t-67 27t-76 12t-76 -16.5t-66 -58.5h-11v122z" />
    <glyph glyph-name="nonbreakingspace" unicode="&#xa0;" horiz-adv-x="455" 
 />
    <glyph glyph-name="exclamdown" unicode="&#xa1;" horiz-adv-x="321" 
d="M76 316v184h169v-184h-169zM66 -200v432h189v-432h-189z" />
    <glyph glyph-name="cent" unicode="&#xa2;" horiz-adv-x="575" 
d="M420 800v-100h99v-183h-156q-65 0 -93.5 -28t-28.5 -101v-75q0 -73 28.5 -101t93.5 -28h156v-184h-99v-100h-118v103q-66 7 -113.5 30.5t-78 62t-44.5 91t-14 117.5v92q0 65 14 117.5t44.5 91t78 62t113.5 30.5v103h118z" />
    <glyph glyph-name="sterling" unicode="&#xa3;" horiz-adv-x="599" 
d="M82 430q4 64 23.5 114t56.5 84.5t93.5 53t133.5 18.5h147v-183h-144q-54 0 -86.5 -19t-32.5 -68v-229q0 -17 14 -17h253v-184h-395q-62 0 -62 63v211h-54v156h53zM448 430v-156h-145v156h145z" />
    <glyph glyph-name="currency" unicode="&#xa4;" horiz-adv-x="596" 
d="M206 522q18 8 40.5 12t51.5 4q54 0 92 -16l83 83l81 -81l-92 -92q6 -24 6 -53v-58q0 -31 -6 -55l92 -92l-81 -81l-85 84q-36 -15 -90 -15q-55 0 -91 15l-84 -84l-81 81l92 92q-6 24 -6 55v58q0 14 1 27.5t4 25.5l-91 92l81 81zM235 333q0 -32 14 -50.5t49 -18.5t49 18.5
t14 50.5v34q0 32 -14 50t-49 18t-49 -18t-14 -50v-34z" />
    <glyph glyph-name="yen" unicode="&#xa5;" horiz-adv-x="684" 
d="M254 700v-185q0 -37 35 -37h109q35 0 35 37v185h189v-236q0 -133 -132 -133h-293q-132 0 -132 133v236h189zM249 229v71h189v-71h178v-126h-178v-103h-189v103h-187v126h187z" />
    <glyph glyph-name="brokenbar" unicode="&#xa6;" horiz-adv-x="366" 
d="M242 929v-500h-118v500h118zM242 229v-500h-118v500h118z" />
    <glyph glyph-name="section" unicode="&#xa7;" horiz-adv-x="651" 
d="M585 750v-144h-370q-28 0 -28 -30v-46q0 -28 26 -28h159q72 0 103 -33.5t31 -95.5v-204q52 -8 75 -40t23 -77v-96q0 -146 -148 -146h-390v144h370q28 0 28 30v46q0 28 -26 28h-159q-72 0 -103 33.5t-31 95.5v204q-53 8 -75.5 40t-22.5 77v96q0 146 148 146h390zM285 199
q0 -14 5.5 -21t19.5 -7h56v190q0 14 -5.5 21t-19.5 7h-56v-190z" />
    <glyph glyph-name="dieresis" unicode="&#xa8;" horiz-adv-x="551" 
d="M485 929v-164h-159v164h159zM225 929v-164h-159v164h159z" />
    <glyph glyph-name="copyright" unicode="&#xa9;" horiz-adv-x="782" 
d="M537 800q50 0 86.5 -15t60 -42.5t35 -66t11.5 -86.5v-480q0 -48 -11.5 -86.5t-35 -66t-60 -42.5t-86.5 -15h-292q-50 0 -86.5 15t-60 42.5t-35 66t-11.5 86.5v480q0 48 11.5 86.5t35 66t60 42.5t86.5 15h292zM170 115q0 -48 19.5 -74.5t57.5 -26.5h288q38 0 57.5 26.5
t19.5 74.5v470q0 46 -19.5 73.5t-57.5 27.5h-288q-38 0 -57.5 -27.5t-19.5 -73.5v-470zM505 545v-102h-87q-35 0 -51 -15t-16 -56v-42q0 -41 16 -56.5t51 -15.5h87v-102h-88q-92 0 -131.5 44.5t-39.5 124.5v51q0 80 39.5 124.5t131.5 44.5h88z" />
    <glyph glyph-name="ordfeminine" unicode="&#xaa;" horiz-adv-x="438" 
d="M256 700q15 0 20 -12l131 -386h-221l27 105h47l-43 149h-3l-69 -254h-114l122 386q4 12 18 12h85zM407 258v-105h-376v105h376z" />
    <glyph glyph-name="guillemotleft" unicode="&#xab;" horiz-adv-x="412" 
d="M21 0zM214 604l-100 -247q-3 -6 -3 -13v-84q0 -6 3 -13l100 -247h-86l-101 225q-3 9 -4.5 16t-1.5 16v90q0 9 1.5 16t4.5 16l101 225h86zM390 604l-100 -247q-3 -6 -3 -13v-84q0 -6 3 -13l100 -247h-86l-101 225q-3 9 -4.5 16t-1.5 16v90q0 9 1.5 16t4.5 16l101 225h86z
" />
    <glyph glyph-name="logicalnot" unicode="&#xac;" horiz-adv-x="742" 
d="M676 406v-406h-114v292h-496v114h610z" />
    <glyph glyph-name="registered" unicode="&#xae;" horiz-adv-x="782" 
d="M537 800q50 0 86.5 -15t60 -42.5t35 -66t11.5 -86.5v-480q0 -48 -11.5 -86.5t-35 -66t-60 -42.5t-86.5 -15h-292q-50 0 -86.5 15t-60 42.5t-35 66t-11.5 86.5v480q0 48 11.5 86.5t35 66t60 42.5t86.5 15h292zM170 115q0 -48 19.5 -74.5t57.5 -26.5h288q38 0 57.5 26.5
t19.5 74.5v470q0 46 -19.5 73.5t-57.5 27.5h-288q-38 0 -57.5 -27.5t-19.5 -73.5v-470zM434 545q105 0 105 -103v-23q0 -28 -7 -41t-22 -21q35 -14 35 -66v-135h-98v131q0 8 -3.5 14t-14.5 6h-66v88h59q11 0 14.5 5.5t3.5 14.5v11q0 21 -20 21h-66q-8 0 -8 -9v-282h-105v355
q0 34 34 34h159z" />
    <glyph glyph-name="macron" unicode="&#xaf;" horiz-adv-x="661" 
d="M595 899v-124h-529v124h529z" />
    <glyph glyph-name="degree" unicode="&#xb0;" horiz-adv-x="423" 
d="M209 625q-33 0 -47.5 -25.5t-14.5 -63.5t14.5 -65t47.5 -27q35 0 49.5 27t14.5 65t-14.5 63.5t-49.5 25.5zM209 713q44 0 75 -14t50.5 -38t28 -57t8.5 -70t-8.5 -69.5t-28 -57t-50.5 -38.5t-75 -14q-42 0 -72 14t-49 38.5t-27.5 57t-8.5 69.5t8.5 70t27.5 57t49 38t72 14
z" />
    <glyph glyph-name="plusminus" unicode="&#xb1;" horiz-adv-x="742" 
d="M314 114v224h-248v114h248v248h114v-248h248v-114h-248v-224h248v-114h-610v114h248z" />
    <glyph glyph-name="twosuperior" unicode="&#xb2;" horiz-adv-x="386" 
d="M46 315zM236 700q104 0 104 -102v-46q0 -35 -20 -59.5t-68 -24.5h-90q-18 0 -18 -19v-24q0 -9 7 -9h184v-101h-239q-50 0 -50 51v91q0 44 21.5 67t72.5 23h84q18 0 18 20v11q0 21 -20 21h-160v101h174z" />
    <glyph glyph-name="threesuperior" unicode="&#xb3;" horiz-adv-x="376" 
d="M48 315zM222 700q104 0 104 -102v-23q0 -28 -7 -40.5t-21 -20.5q16 -7 25 -23t9 -42v-32q0 -102 -104 -102h-180v99h166q19 0 19 21v9q0 8 -3 14t-14 6h-164v87h157q11 0 14.5 6t3.5 14v9q0 21 -20 21h-159v99h174z" />
    <glyph glyph-name="acute" unicode="&#xb4;" horiz-adv-x="441" 
d="M375 929l-140 -164h-169l100 164h209z" />
    <glyph glyph-name="paragraph" unicode="&#xb6;" horiz-adv-x="701" 
d="M496 700q157 0 157 -155v-93q0 -76 -39 -122t-118 -46h-162v269h-98q-13 0 -13 -14v-810h-157v919q0 52 52 52h378z" />
    <glyph glyph-name="periodcentered" unicode="&#xb7;" horiz-adv-x="301" 
d="M235 446v-184h-169v184h169z" />
    <glyph glyph-name="cedilla" unicode="&#xb8;" horiz-adv-x="387" 
d="M321 -42l-99 -229h-156l59 229h196z" />
    <glyph glyph-name="onesuperior" unicode="&#xb9;" horiz-adv-x="221" 
d="M29 315zM136 700q34 0 34 -35v-350h-104v274q0 10 -8 10h-29v101h107z" />
    <glyph glyph-name="ordmasculine" unicode="&#xba;" horiz-adv-x="443" 
d="M409 258v-105h-376v105h376zM50 533q0 82 39 127.5t132 45.5q94 0 133 -45.5t39 -127.5v-64q0 -82 -39 -127.5t-133 -45.5q-93 0 -132 45.5t-39 127.5v64zM157 474q0 -42 13.5 -58t50.5 -16t50.5 16t13.5 58v54q0 42 -13.5 58t-50.5 16t-50.5 -16t-13.5 -58v-54z" />
    <glyph glyph-name="guillemotright" unicode="&#xbb;" horiz-adv-x="412" 
d="M21 0zM107 604l101 -225q3 -9 4.5 -16t1.5 -16v-90q0 -9 -1.5 -16t-4.5 -16l-101 -225h-86l100 247q3 7 3 13v84q0 7 -3 13l-100 247h86zM283 604l101 -225q3 -9 4.5 -16t1.5 -16v-90q0 -9 -1.5 -16t-4.5 -16l-101 -225h-86l100 247q3 7 3 13v84q0 7 -3 13l-100 247h86z
" />
    <glyph glyph-name="onequarter" unicode="&#xbc;" horiz-adv-x="767" 
d="M52 0zM159 700q34 0 34 -35v-350h-104v274q0 10 -8 10h-29v101h107zM614 700l-420 -700h-129l420 700h129zM693 386l-132 -198v-3h154v-185h-104v94h-158q-34 0 -34 34v28q0 8 2 13.5t7 12.5l140 204h125z" />
    <glyph glyph-name="onehalf" unicode="&#xbd;" horiz-adv-x="826" 
d="M52 0zM159 700q34 0 34 -35v-350h-104v274q0 10 -8 10h-29v101h107zM614 700l-420 -700h-129l420 700h129zM670 385q104 0 104 -102v-46q0 -35 -20 -59.5t-68 -24.5h-90q-18 0 -18 -19v-24q0 -9 7 -9h184v-101h-239q-50 0 -50 51v91q0 44 21.5 67t72.5 23h84q18 0 18 20
v11q0 21 -20 21h-160v101h174z" />
    <glyph glyph-name="threequarters" unicode="&#xbe;" horiz-adv-x="883" 
d="M52 0zM226 700q104 0 104 -102v-23q0 -28 -7 -40.5t-21 -20.5q16 -7 25 -23t9 -42v-32q0 -102 -104 -102h-180v99h166q19 0 19 21v9q0 8 -3 14t-14 6h-164v87h157q11 0 14.5 6t3.5 14v9q0 21 -20 21h-159v99h174zM730 700l-420 -700h-129l420 700h129zM809 386l-132 -198
v-3h154v-185h-104v94h-158q-34 0 -34 34v28q0 8 2 13.5t7 12.5l140 204h125z" />
    <glyph glyph-name="questiondown" unicode="&#xbf;" horiz-adv-x="568" 
d="M239 316v184h169v-184h-169zM225 -200q-189 0 -189 186v36q0 31 3.5 55.5t14.5 46t31.5 40t55.5 37.5l57 31h189l-110 -103q-14 -14 -23.5 -30.5t-9.5 -37.5v-40q0 -38 36 -38h262v-183h-317z" />
    <glyph glyph-name="Agrave" unicode="&#xc0;" horiz-adv-x="692" 
d="M16 0zM412 700q26 0 34 -22l230 -678h-414l47 184h110l-77 262h-4l-121 -446h-201l214 678q7 22 32 22h150zM350 929l100 -164h-169l-140 164h209z" />
    <glyph glyph-name="Aacute" unicode="&#xc1;" horiz-adv-x="692" 
d="M16 0zM412 700q26 0 34 -22l230 -678h-414l47 184h110l-77 262h-4l-121 -446h-201l214 678q7 22 32 22h150zM550 929l-140 -164h-169l100 164h209z" />
    <glyph glyph-name="Acircumflex" unicode="&#xc2;" horiz-adv-x="692" 
d="M16 0zM412 700q26 0 34 -22l230 -678h-414l47 184h110l-77 262h-4l-121 -446h-201l214 678q7 22 32 22h150zM404 929q27 0 46 -6t27 -19l82 -139h-170l-41 70h-4l-40 -70h-172l83 139q8 13 27 19t46 6h116z" />
    <glyph glyph-name="Atilde" unicode="&#xc3;" horiz-adv-x="692" 
d="M16 0zM412 700q26 0 34 -22l230 -678h-414l47 184h110l-77 262h-4l-121 -446h-201l214 678q7 22 32 22h150zM81 876q20 25 52 39t77 14q42 0 74.5 -11t61.5 -24t57.5 -24t63.5 -11q34 0 69.5 14.5t65.5 53.5h9v-137q-23 -25 -62.5 -39t-81.5 -14q-39 0 -69.5 10.5
t-59 23.5t-58 23.5t-66.5 10.5t-66 -14t-57 -51h-10v136z" />
    <glyph glyph-name="Adieresis" unicode="&#xc4;" horiz-adv-x="692" 
d="M16 0zM412 700q26 0 34 -22l230 -678h-414l47 184h110l-77 262h-4l-121 -446h-201l214 678q7 22 32 22h150zM555 929v-164h-159v164h159zM295 929v-164h-159v164h159z" />
    <glyph glyph-name="Aring" unicode="&#xc5;" horiz-adv-x="692" 
d="M16 0zM412 700q26 0 34 -22l230 -678h-414l47 184h110l-77 262h-4l-121 -446h-201l214 678q7 22 32 22h150zM219 834q0 45 28.5 70t98.5 25q69 0 97.5 -25t28.5 -70v-34q0 -45 -28.5 -70t-97.5 -25q-70 0 -98.5 25t-28.5 70v34zM309 806q0 -17 8 -23.5t29 -6.5
q20 0 28 6.5t8 23.5v22q0 17 -8 24t-28 7q-21 0 -29 -7t-8 -24v-22z" />
    <glyph glyph-name="AE" unicode="&#xc6;" horiz-adv-x="917" 
d="M858 700v-183h-268v-316q0 -17 15 -17h253v-184h-395q-62 0 -62 63v454h-32q-5 0 -9.5 -4.5t-6.5 -9.5l-136 -503h-201l214 678q7 22 32 22h596zM856 437v-166h-235v166h235z" />
    <glyph glyph-name="Ccedilla" unicode="&#xc7;" horiz-adv-x="573" 
d="M52 0zM519 700v-183h-156q-65 0 -93.5 -28t-28.5 -101v-75q0 -73 28.5 -101t93.5 -28h156v-184h-159q-82 0 -140.5 20.5t-95.5 59.5t-54.5 95.5t-17.5 128.5v92q0 72 17.5 128.5t54.5 95.5t95.5 59.5t140.5 20.5h159zM474 -42l-99 -229h-156l59 229h196z" />
    <glyph glyph-name="Egrave" unicode="&#xc8;" horiz-adv-x="580" 
d="M64 0zM521 700v-183h-253q-15 0 -15 -17v-299q0 -17 15 -17h253v-184h-395q-62 0 -62 63v575q0 62 62 62h395zM519 437v-166h-235v166h235zM294 929l100 -164h-169l-140 164h209z" />
    <glyph glyph-name="Eacute" unicode="&#xc9;" horiz-adv-x="580" 
d="M64 0zM521 700v-183h-253q-15 0 -15 -17v-299q0 -17 15 -17h253v-184h-395q-62 0 -62 63v575q0 62 62 62h395zM519 437v-166h-235v166h235zM494 929l-140 -164h-169l100 164h209z" />
    <glyph glyph-name="Ecircumflex" unicode="&#xca;" horiz-adv-x="580" 
d="M64 0zM521 700v-183h-253q-15 0 -15 -17v-299q0 -17 15 -17h253v-184h-395q-62 0 -62 63v575q0 62 62 62h395zM519 437v-166h-235v166h235zM348 929q27 0 46 -6t27 -19l82 -139h-170l-41 70h-4l-40 -70h-172l83 139q8 13 27 19t46 6h116z" />
    <glyph glyph-name="Edieresis" unicode="&#xcb;" horiz-adv-x="580" 
d="M64 0zM521 700v-183h-253q-15 0 -15 -17v-299q0 -17 15 -17h253v-184h-395q-62 0 -62 63v575q0 62 62 62h395zM519 437v-166h-235v166h235zM499 929v-164h-159v164h159zM239 929v-164h-159v164h159z" />
    <glyph glyph-name="Igrave" unicode="&#xcc;" horiz-adv-x="365" 
d="M0 0zM299 700v-700h-189v700h189zM209 929l100 -164h-169l-140 164h209z" />
    <glyph glyph-name="Iacute" unicode="&#xcd;" horiz-adv-x="365" 
d="M56 0zM255 700v-700h-189v700h189zM365 929l-140 -164h-169l100 164h209z" />
    <glyph glyph-name="Icircumflex" unicode="&#xce;" horiz-adv-x="427" 
d="M0 0zM308 700v-700h-189v700h189zM272 929q27 0 46 -6t27 -19l82 -139h-170l-41 70h-4l-40 -70h-172l83 139q8 13 27 19t46 6h116z" />
    <glyph glyph-name="Idieresis" unicode="&#xcf;" horiz-adv-x="432" 
d="M6 0zM310 700v-700h-189v700h189zM425 929v-164h-159v164h159zM165 929v-164h-159v164h159z" />
    <glyph glyph-name="Eth" unicode="&#xd0;" horiz-adv-x="699" 
d="M339 700q82 0 140.5 -20.5t95.5 -59.5t54.5 -95.5t17.5 -128.5v-92q0 -72 -17.5 -128.5t-54.5 -95.5t-95.5 -59.5t-140.5 -20.5h-197q-62 0 -62 62v209h-61v166h61v201q0 62 62 62h197zM269 201q0 -17 15 -17h63q65 0 93.5 28t28.5 101v75q0 73 -28.5 101t-93.5 28h-63
q-15 0 -15 -17v-299zM388 437v-166h-88v166h88z" />
    <glyph glyph-name="Ntilde" unicode="&#xd1;" horiz-adv-x="690" 
d="M64 0zM217 700q48 0 71 -44l150 -287h4v331h184v-657q0 -18 -10 -30.5t-27 -12.5h-89q-46 0 -71 44l-177 304h-4v-348h-184v657q0 18 10 30.5t27 12.5h116zM80 876q20 25 52 39t77 14q42 0 74.5 -11t61.5 -24t57.5 -24t63.5 -11q34 0 69.5 14.5t65.5 53.5h9v-137
q-23 -25 -62.5 -39t-81.5 -14q-39 0 -69.5 10.5t-59 23.5t-58 23.5t-66.5 10.5t-66 -14t-57 -51h-10v136z" />
    <glyph glyph-name="Ograve" unicode="&#xd2;" horiz-adv-x="706" 
d="M52 0zM52 406q0 72 16 128.5t52 95.5t93.5 59.5t139.5 20.5t139.5 -20.5t93.5 -59.5t52 -95.5t16 -128.5v-112q0 -72 -16 -128.5t-52 -95.5t-93.5 -59.5t-139.5 -20.5t-139.5 20.5t-93.5 59.5t-52 95.5t-16 128.5v112zM241 302q0 -36 5.5 -61t18.5 -40t34.5 -21.5
t53.5 -6.5t53.5 6.5t34.5 21.5t18.5 40t5.5 61v96q0 36 -5.5 61t-18.5 40t-34.5 21.5t-53.5 6.5t-53.5 -6.5t-34.5 -21.5t-18.5 -40t-5.5 -61v-96zM357 929l100 -164h-169l-140 164h209z" />
    <glyph glyph-name="Oacute" unicode="&#xd3;" horiz-adv-x="706" 
d="M52 0zM52 406q0 72 16 128.5t52 95.5t93.5 59.5t139.5 20.5t139.5 -20.5t93.5 -59.5t52 -95.5t16 -128.5v-112q0 -72 -16 -128.5t-52 -95.5t-93.5 -59.5t-139.5 -20.5t-139.5 20.5t-93.5 59.5t-52 95.5t-16 128.5v112zM241 302q0 -36 5.5 -61t18.5 -40t34.5 -21.5
t53.5 -6.5t53.5 6.5t34.5 21.5t18.5 40t5.5 61v96q0 36 -5.5 61t-18.5 40t-34.5 21.5t-53.5 6.5t-53.5 -6.5t-34.5 -21.5t-18.5 -40t-5.5 -61v-96zM557 929l-140 -164h-169l100 164h209z" />
    <glyph glyph-name="Ocircumflex" unicode="&#xd4;" horiz-adv-x="706" 
d="M52 0zM52 406q0 72 16 128.5t52 95.5t93.5 59.5t139.5 20.5t139.5 -20.5t93.5 -59.5t52 -95.5t16 -128.5v-112q0 -72 -16 -128.5t-52 -95.5t-93.5 -59.5t-139.5 -20.5t-139.5 20.5t-93.5 59.5t-52 95.5t-16 128.5v112zM241 302q0 -36 5.5 -61t18.5 -40t34.5 -21.5
t53.5 -6.5t53.5 6.5t34.5 21.5t18.5 40t5.5 61v96q0 36 -5.5 61t-18.5 40t-34.5 21.5t-53.5 6.5t-53.5 -6.5t-34.5 -21.5t-18.5 -40t-5.5 -61v-96zM411 929q27 0 46 -6t27 -19l82 -139h-170l-41 70h-4l-40 -70h-172l83 139q8 13 27 19t46 6h116z" />
    <glyph glyph-name="Otilde" unicode="&#xd5;" horiz-adv-x="706" 
d="M52 0zM52 406q0 72 16 128.5t52 95.5t93.5 59.5t139.5 20.5t139.5 -20.5t93.5 -59.5t52 -95.5t16 -128.5v-112q0 -72 -16 -128.5t-52 -95.5t-93.5 -59.5t-139.5 -20.5t-139.5 20.5t-93.5 59.5t-52 95.5t-16 128.5v112zM241 302q0 -36 5.5 -61t18.5 -40t34.5 -21.5
t53.5 -6.5t53.5 6.5t34.5 21.5t18.5 40t5.5 61v96q0 36 -5.5 61t-18.5 40t-34.5 21.5t-53.5 6.5t-53.5 -6.5t-34.5 -21.5t-18.5 -40t-5.5 -61v-96zM88 876q20 25 52 39t77 14q42 0 74.5 -11t61.5 -24t57.5 -24t63.5 -11q34 0 69.5 14.5t65.5 53.5h9v-137q-23 -25 -62.5 -39
t-81.5 -14q-39 0 -69.5 10.5t-59 23.5t-58 23.5t-66.5 10.5t-66 -14t-57 -51h-10v136z" />
    <glyph glyph-name="Odieresis" unicode="&#xd6;" horiz-adv-x="706" 
d="M52 0zM52 406q0 72 16 128.5t52 95.5t93.5 59.5t139.5 20.5t139.5 -20.5t93.5 -59.5t52 -95.5t16 -128.5v-112q0 -72 -16 -128.5t-52 -95.5t-93.5 -59.5t-139.5 -20.5t-139.5 20.5t-93.5 59.5t-52 95.5t-16 128.5v112zM241 302q0 -36 5.5 -61t18.5 -40t34.5 -21.5
t53.5 -6.5t53.5 6.5t34.5 21.5t18.5 40t5.5 61v96q0 36 -5.5 61t-18.5 40t-34.5 21.5t-53.5 6.5t-53.5 -6.5t-34.5 -21.5t-18.5 -40t-5.5 -61v-96zM562 929v-164h-159v164h159zM302 929v-164h-159v164h159z" />
    <glyph glyph-name="multiply" unicode="&#xd7;" horiz-adv-x="742" 
d="M371 430l175 175l81 -81l-175 -175l175 -175l-81 -81l-175 175l-175 -175l-81 81l175 175l-175 175l81 81z" />
    <glyph glyph-name="Oslash" unicode="&#xd8;" horiz-adv-x="706" 
d="M654 800l-85 -155q45 -39 65 -99.5t20 -139.5v-112q0 -71 -16 -127.5t-52 -95.5t-93 -60t-138 -21q-41 0 -73 5t-60 13l-58 -108h-112l84 155q-45 39 -64.5 99t-19.5 140v112q0 71 16 127.5t52 95.5t92.5 60t137.5 21q41 0 73.5 -5t59.5 -13l59 108h112zM474 398
q0 35 -6 61l-154 -284q8 -1 18 -1.5t22 -0.5q34 0 57.5 6.5t37 21.5t19.5 40t6 61v96zM232 302q0 -18 1 -33.5t4 -27.5l155 283q-18 3 -40 3q-35 0 -58 -6.5t-36.5 -22t-19.5 -40t-6 -60.5v-96z" />
    <glyph glyph-name="Ugrave" unicode="&#xd9;" 
d="M61 0zM250 700v-479q0 -37 35 -37h109q35 0 35 37v479h189v-567q0 -133 -132 -133h-293q-132 0 -132 133v567h189zM344 929l100 -164h-169l-140 164h209z" />
    <glyph glyph-name="Uacute" unicode="&#xda;" 
d="M61 0zM250 700v-479q0 -37 35 -37h109q35 0 35 37v479h189v-567q0 -133 -132 -133h-293q-132 0 -132 133v567h189zM544 929l-140 -164h-169l100 164h209z" />
    <glyph glyph-name="Ucircumflex" unicode="&#xdb;" 
d="M61 0zM250 700v-479q0 -37 35 -37h109q35 0 35 37v479h189v-567q0 -133 -132 -133h-293q-132 0 -132 133v567h189zM398 929q27 0 46 -6t27 -19l82 -139h-170l-41 70h-4l-40 -70h-172l83 139q8 13 27 19t46 6h116z" />
    <glyph glyph-name="Udieresis" unicode="&#xdc;" 
d="M61 0zM250 700v-479q0 -37 35 -37h109q35 0 35 37v479h189v-567q0 -133 -132 -133h-293q-132 0 -132 133v567h189zM549 929v-164h-159v164h159zM289 929v-164h-159v164h159z" />
    <glyph glyph-name="Yacute" unicode="&#xdd;" horiz-adv-x="649" 
d="M46 0zM419 240v-240h-189v240h189zM235 700v-225q0 -37 35 -37h109q35 0 35 37v225h189v-296q0 -133 -132 -133h-293q-132 0 -132 133v296h189zM529 929l-140 -164h-169l100 164h209z" />
    <glyph glyph-name="Thorn" unicode="&#xde;" horiz-adv-x="639" 
d="M255 700v-700h-189v700h189zM414 579q95 0 142 -55t47 -147v-56q0 -92 -47 -147t-142 -55h-128v158h106q20 0 26.5 10.5t6.5 25.5v72q0 15 -6.5 25.5t-26.5 10.5h-106v158h128z" />
    <glyph glyph-name="germandbls" unicode="&#xdf;" horiz-adv-x="746" 
d="M358 700q146 0 146 -163v-95q0 -20 21 -20h14q92 0 131.5 -42.5t39.5 -121.5v-72q0 -186 -189 -186h-235v184h219q36 0 36 38v21q0 18 -7 27t-26 9h-21q-43 0 -73.5 11.5t-50 32t-28.5 48t-9 59.5v61q0 33 -28 33h-15q-28 0 -28 -33v-491h-189v537q0 163 146 163h146z
" />
    <glyph glyph-name="agrave" unicode="&#xe0;" horiz-adv-x="692" 
d="M16 0zM412 700q26 0 34 -22l230 -678h-414l47 184h110l-77 262h-4l-121 -446h-201l214 678q7 22 32 22h150zM350 929l100 -164h-169l-140 164h209z" />
    <glyph glyph-name="aacute" unicode="&#xe1;" horiz-adv-x="692" 
d="M16 0zM412 700q26 0 34 -22l230 -678h-414l47 184h110l-77 262h-4l-121 -446h-201l214 678q7 22 32 22h150zM550 929l-140 -164h-169l100 164h209z" />
    <glyph glyph-name="acircumflex" unicode="&#xe2;" horiz-adv-x="692" 
d="M16 0zM412 700q26 0 34 -22l230 -678h-414l47 184h110l-77 262h-4l-121 -446h-201l214 678q7 22 32 22h150zM404 929q27 0 46 -6t27 -19l82 -139h-170l-41 70h-4l-40 -70h-172l83 139q8 13 27 19t46 6h116z" />
    <glyph glyph-name="atilde" unicode="&#xe3;" horiz-adv-x="692" 
d="M16 0zM412 700q26 0 34 -22l230 -678h-414l47 184h110l-77 262h-4l-121 -446h-201l214 678q7 22 32 22h150zM81 876q20 25 52 39t77 14q42 0 74.5 -11t61.5 -24t57.5 -24t63.5 -11q34 0 69.5 14.5t65.5 53.5h9v-137q-23 -25 -62.5 -39t-81.5 -14q-39 0 -69.5 10.5
t-59 23.5t-58 23.5t-66.5 10.5t-66 -14t-57 -51h-10v136z" />
    <glyph glyph-name="adieresis" unicode="&#xe4;" horiz-adv-x="692" 
d="M16 0zM412 700q26 0 34 -22l230 -678h-414l47 184h110l-77 262h-4l-121 -446h-201l214 678q7 22 32 22h150zM555 929v-164h-159v164h159zM295 929v-164h-159v164h159z" />
    <glyph glyph-name="aring" unicode="&#xe5;" horiz-adv-x="692" 
d="M16 0zM412 700q26 0 34 -22l230 -678h-414l47 184h110l-77 262h-4l-121 -446h-201l214 678q7 22 32 22h150zM219 834q0 45 28.5 70t98.5 25q69 0 97.5 -25t28.5 -70v-34q0 -45 -28.5 -70t-97.5 -25q-70 0 -98.5 25t-28.5 70v34zM309 806q0 -17 8 -23.5t29 -6.5
q20 0 28 6.5t8 23.5v22q0 17 -8 24t-28 7q-21 0 -29 -7t-8 -24v-22z" />
    <glyph glyph-name="ae" unicode="&#xe6;" horiz-adv-x="917" 
d="M16 0zM858 700v-183h-268v-316q0 -17 15 -17h253v-184h-395q-62 0 -62 63v454h-32q-5 0 -9.5 -4.5t-6.5 -9.5l-136 -503h-201l214 678q7 22 32 22h596zM856 437v-166h-235v166h235z" />
    <glyph glyph-name="ccedilla" unicode="&#xe7;" horiz-adv-x="573" 
d="M52 0zM519 700v-183h-156q-65 0 -93.5 -28t-28.5 -101v-75q0 -73 28.5 -101t93.5 -28h156v-184h-159q-82 0 -140.5 20.5t-95.5 59.5t-54.5 95.5t-17.5 128.5v92q0 72 17.5 128.5t54.5 95.5t95.5 59.5t140.5 20.5h159zM474 -42l-99 -229h-156l59 229h196z" />
    <glyph glyph-name="egrave" unicode="&#xe8;" horiz-adv-x="580" 
d="M64 0zM521 700v-183h-253q-15 0 -15 -17v-299q0 -17 15 -17h253v-184h-395q-62 0 -62 63v575q0 62 62 62h395zM519 437v-166h-235v166h235zM294 929l100 -164h-169l-140 164h209z" />
    <glyph glyph-name="eacute" unicode="&#xe9;" horiz-adv-x="580" 
d="M64 0zM521 700v-183h-253q-15 0 -15 -17v-299q0 -17 15 -17h253v-184h-395q-62 0 -62 63v575q0 62 62 62h395zM519 437v-166h-235v166h235zM494 929l-140 -164h-169l100 164h209z" />
    <glyph glyph-name="ecircumflex" unicode="&#xea;" horiz-adv-x="580" 
d="M64 0zM521 700v-183h-253q-15 0 -15 -17v-299q0 -17 15 -17h253v-184h-395q-62 0 -62 63v575q0 62 62 62h395zM519 437v-166h-235v166h235zM348 929q27 0 46 -6t27 -19l82 -139h-170l-41 70h-4l-40 -70h-172l83 139q8 13 27 19t46 6h116z" />
    <glyph glyph-name="edieresis" unicode="&#xeb;" horiz-adv-x="580" 
d="M64 0zM521 700v-183h-253q-15 0 -15 -17v-299q0 -17 15 -17h253v-184h-395q-62 0 -62 63v575q0 62 62 62h395zM519 437v-166h-235v166h235zM499 929v-164h-159v164h159zM239 929v-164h-159v164h159z" />
    <glyph glyph-name="igrave" unicode="&#xec;" horiz-adv-x="365" 
d="M0 0zM299 700v-700h-189v700h189zM209 929l100 -164h-169l-140 164h209z" />
    <glyph glyph-name="iacute" unicode="&#xed;" horiz-adv-x="365" 
d="M56 0zM255 700v-700h-189v700h189zM365 929l-140 -164h-169l100 164h209z" />
    <glyph glyph-name="icircumflex" unicode="&#xee;" horiz-adv-x="427" 
d="M0 0zM308 700v-700h-189v700h189zM272 929q27 0 46 -6t27 -19l82 -139h-170l-41 70h-4l-40 -70h-172l83 139q8 13 27 19t46 6h116z" />
    <glyph glyph-name="idieresis" unicode="&#xef;" horiz-adv-x="432" 
d="M6 0zM310 700v-700h-189v700h189zM425 929v-164h-159v164h159zM165 929v-164h-159v164h159z" />
    <glyph glyph-name="eth" unicode="&#xf0;" horiz-adv-x="699" 
d="M19 0zM339 700q82 0 140.5 -20.5t95.5 -59.5t54.5 -95.5t17.5 -128.5v-92q0 -72 -17.5 -128.5t-54.5 -95.5t-95.5 -59.5t-140.5 -20.5h-197q-62 0 -62 62v209h-61v166h61v201q0 62 62 62h197zM269 201q0 -17 15 -17h63q65 0 93.5 28t28.5 101v75q0 73 -28.5 101t-93.5 28
h-63q-15 0 -15 -17v-299zM388 437v-166h-88v166h88z" />
    <glyph glyph-name="ntilde" unicode="&#xf1;" horiz-adv-x="690" 
d="M64 0zM217 700q48 0 71 -44l150 -287h4v331h184v-657q0 -18 -10 -30.5t-27 -12.5h-89q-46 0 -71 44l-177 304h-4v-348h-184v657q0 18 10 30.5t27 12.5h116zM80 876q20 25 52 39t77 14q42 0 74.5 -11t61.5 -24t57.5 -24t63.5 -11q34 0 69.5 14.5t65.5 53.5h9v-137
q-23 -25 -62.5 -39t-81.5 -14q-39 0 -69.5 10.5t-59 23.5t-58 23.5t-66.5 10.5t-66 -14t-57 -51h-10v136z" />
    <glyph glyph-name="ograve" unicode="&#xf2;" horiz-adv-x="706" 
d="M52 0zM52 406q0 72 16 128.5t52 95.5t93.5 59.5t139.5 20.5t139.5 -20.5t93.5 -59.5t52 -95.5t16 -128.5v-112q0 -72 -16 -128.5t-52 -95.5t-93.5 -59.5t-139.5 -20.5t-139.5 20.5t-93.5 59.5t-52 95.5t-16 128.5v112zM241 302q0 -36 5.5 -61t18.5 -40t34.5 -21.5
t53.5 -6.5t53.5 6.5t34.5 21.5t18.5 40t5.5 61v96q0 36 -5.5 61t-18.5 40t-34.5 21.5t-53.5 6.5t-53.5 -6.5t-34.5 -21.5t-18.5 -40t-5.5 -61v-96zM357 929l100 -164h-169l-140 164h209z" />
    <glyph glyph-name="oacute" unicode="&#xf3;" horiz-adv-x="706" 
d="M52 0zM52 406q0 72 16 128.5t52 95.5t93.5 59.5t139.5 20.5t139.5 -20.5t93.5 -59.5t52 -95.5t16 -128.5v-112q0 -72 -16 -128.5t-52 -95.5t-93.5 -59.5t-139.5 -20.5t-139.5 20.5t-93.5 59.5t-52 95.5t-16 128.5v112zM241 302q0 -36 5.5 -61t18.5 -40t34.5 -21.5
t53.5 -6.5t53.5 6.5t34.5 21.5t18.5 40t5.5 61v96q0 36 -5.5 61t-18.5 40t-34.5 21.5t-53.5 6.5t-53.5 -6.5t-34.5 -21.5t-18.5 -40t-5.5 -61v-96zM557 929l-140 -164h-169l100 164h209z" />
    <glyph glyph-name="ocircumflex" unicode="&#xf4;" horiz-adv-x="706" 
d="M52 0zM52 406q0 72 16 128.5t52 95.5t93.5 59.5t139.5 20.5t139.5 -20.5t93.5 -59.5t52 -95.5t16 -128.5v-112q0 -72 -16 -128.5t-52 -95.5t-93.5 -59.5t-139.5 -20.5t-139.5 20.5t-93.5 59.5t-52 95.5t-16 128.5v112zM241 302q0 -36 5.5 -61t18.5 -40t34.5 -21.5
t53.5 -6.5t53.5 6.5t34.5 21.5t18.5 40t5.5 61v96q0 36 -5.5 61t-18.5 40t-34.5 21.5t-53.5 6.5t-53.5 -6.5t-34.5 -21.5t-18.5 -40t-5.5 -61v-96zM411 929q27 0 46 -6t27 -19l82 -139h-170l-41 70h-4l-40 -70h-172l83 139q8 13 27 19t46 6h116z" />
    <glyph glyph-name="otilde" unicode="&#xf5;" horiz-adv-x="706" 
d="M52 0zM52 406q0 72 16 128.5t52 95.5t93.5 59.5t139.5 20.5t139.5 -20.5t93.5 -59.5t52 -95.5t16 -128.5v-112q0 -72 -16 -128.5t-52 -95.5t-93.5 -59.5t-139.5 -20.5t-139.5 20.5t-93.5 59.5t-52 95.5t-16 128.5v112zM241 302q0 -36 5.5 -61t18.5 -40t34.5 -21.5
t53.5 -6.5t53.5 6.5t34.5 21.5t18.5 40t5.5 61v96q0 36 -5.5 61t-18.5 40t-34.5 21.5t-53.5 6.5t-53.5 -6.5t-34.5 -21.5t-18.5 -40t-5.5 -61v-96zM88 876q20 25 52 39t77 14q42 0 74.5 -11t61.5 -24t57.5 -24t63.5 -11q34 0 69.5 14.5t65.5 53.5h9v-137q-23 -25 -62.5 -39
t-81.5 -14q-39 0 -69.5 10.5t-59 23.5t-58 23.5t-66.5 10.5t-66 -14t-57 -51h-10v136z" />
    <glyph glyph-name="odieresis" unicode="&#xf6;" horiz-adv-x="706" 
d="M52 0zM52 406q0 72 16 128.5t52 95.5t93.5 59.5t139.5 20.5t139.5 -20.5t93.5 -59.5t52 -95.5t16 -128.5v-112q0 -72 -16 -128.5t-52 -95.5t-93.5 -59.5t-139.5 -20.5t-139.5 20.5t-93.5 59.5t-52 95.5t-16 128.5v112zM241 302q0 -36 5.5 -61t18.5 -40t34.5 -21.5
t53.5 -6.5t53.5 6.5t34.5 21.5t18.5 40t5.5 61v96q0 36 -5.5 61t-18.5 40t-34.5 21.5t-53.5 6.5t-53.5 -6.5t-34.5 -21.5t-18.5 -40t-5.5 -61v-96zM562 929v-164h-159v164h159zM302 929v-164h-159v164h159z" />
    <glyph glyph-name="divide" unicode="&#xf7;" horiz-adv-x="742" 
d="M676 406v-114h-610v114h610zM455 700v-184h-169v184h169zM455 184v-184h-169v184h169z" />
    <glyph glyph-name="oslash" unicode="&#xf8;" horiz-adv-x="706" 
d="M52 0zM654 800l-85 -155q45 -39 65 -99.5t20 -139.5v-112q0 -71 -16 -127.5t-52 -95.5t-93 -60t-138 -21q-41 0 -73 5t-60 13l-58 -108h-112l84 155q-45 39 -64.5 99t-19.5 140v112q0 71 16 127.5t52 95.5t92.5 60t137.5 21q41 0 73.5 -5t59.5 -13l59 108h112zM474 398
q0 35 -6 61l-154 -284q8 -1 18 -1.5t22 -0.5q34 0 57.5 6.5t37 21.5t19.5 40t6 61v96zM232 302q0 -18 1 -33.5t4 -27.5l155 283q-18 3 -40 3q-35 0 -58 -6.5t-36.5 -22t-19.5 -40t-6 -60.5v-96z" />
    <glyph glyph-name="ugrave" unicode="&#xf9;" 
d="M61 0zM250 700v-479q0 -37 35 -37h109q35 0 35 37v479h189v-567q0 -133 -132 -133h-293q-132 0 -132 133v567h189zM344 929l100 -164h-169l-140 164h209z" />
    <glyph glyph-name="uacute" unicode="&#xfa;" 
d="M61 0zM250 700v-479q0 -37 35 -37h109q35 0 35 37v479h189v-567q0 -133 -132 -133h-293q-132 0 -132 133v567h189zM544 929l-140 -164h-169l100 164h209z" />
    <glyph glyph-name="ucircumflex" unicode="&#xfb;" 
d="M61 0zM250 700v-479q0 -37 35 -37h109q35 0 35 37v479h189v-567q0 -133 -132 -133h-293q-132 0 -132 133v567h189zM398 929q27 0 46 -6t27 -19l82 -139h-170l-41 70h-4l-40 -70h-172l83 139q8 13 27 19t46 6h116z" />
    <glyph glyph-name="udieresis" unicode="&#xfc;" 
d="M61 0zM250 700v-479q0 -37 35 -37h109q35 0 35 37v479h189v-567q0 -133 -132 -133h-293q-132 0 -132 133v567h189zM549 929v-164h-159v164h159zM289 929v-164h-159v164h159z" />
    <glyph glyph-name="yacute" unicode="&#xfd;" horiz-adv-x="649" 
d="M46 0zM419 240v-240h-189v240h189zM235 700v-225q0 -37 35 -37h109q35 0 35 37v225h189v-296q0 -133 -132 -133h-293q-132 0 -132 133v296h189zM529 929l-140 -164h-169l100 164h209z" />
    <glyph glyph-name="thorn" unicode="&#xfe;" horiz-adv-x="639" 
d="M66 0zM255 700v-700h-189v700h189zM414 579q95 0 142 -55t47 -147v-56q0 -92 -47 -147t-142 -55h-128v158h106q20 0 26.5 10.5t6.5 25.5v72q0 15 -6.5 25.5t-26.5 10.5h-106v158h128z" />
    <glyph glyph-name="ydieresis" unicode="&#xff;" horiz-adv-x="649" 
d="M46 0zM419 240v-240h-189v240h189zM235 700v-225q0 -37 35 -37h109q35 0 35 37v225h189v-296q0 -133 -132 -133h-293q-132 0 -132 133v296h189zM534 929v-164h-159v164h159zM274 929v-164h-159v164h159z" />
    <glyph glyph-name="Amacron" unicode="&#x100;" horiz-adv-x="692" 
d="M16 0zM412 700q26 0 34 -22l230 -678h-414l47 184h110l-77 262h-4l-121 -446h-201l214 678q7 22 32 22h150zM610 899v-124h-529v124h529z" />
    <glyph glyph-name="amacron" unicode="&#x101;" horiz-adv-x="692" 
d="M16 0zM412 700q26 0 34 -22l230 -678h-414l47 184h110l-77 262h-4l-121 -446h-201l214 678q7 22 32 22h150zM610 899v-124h-529v124h529z" />
    <glyph glyph-name="Abreve" unicode="&#x102;" horiz-adv-x="692" 
d="M16 0zM412 700q26 0 34 -22l230 -678h-414l47 184h110l-77 262h-4l-121 -446h-201l214 678q7 22 32 22h150zM287 929q2 -52 14.5 -71.5t44.5 -19.5t44 19.5t14 71.5h131q-1 -46 -11.5 -82t-33 -60.5t-58 -37.5t-86.5 -13q-102 0 -145 50.5t-44 142.5h130z" />
    <glyph glyph-name="abreve" unicode="&#x103;" horiz-adv-x="692" 
d="M16 0zM412 700q26 0 34 -22l230 -678h-414l47 184h110l-77 262h-4l-121 -446h-201l214 678q7 22 32 22h150zM287 929q2 -52 14.5 -71.5t44.5 -19.5t44 19.5t14 71.5h131q-1 -46 -11.5 -82t-33 -60.5t-58 -37.5t-86.5 -13q-102 0 -145 50.5t-44 142.5h130z" />
    <glyph glyph-name="Aogonek" unicode="&#x104;" horiz-adv-x="692" 
d="M16 0zM412 700q26 0 34 -22l230 -678h-414l47 184h110l-77 262h-4l-121 -446h-201l214 678q7 22 32 22h150zM675 -24l-148 -59v-4h148v-184h-265q-27 0 -43.5 5t-26.5 14t-13.5 20t-3.5 23v52q0 28 13.5 47.5t45.5 30.5l155 55h138z" />
    <glyph glyph-name="aogonek" unicode="&#x105;" horiz-adv-x="692" 
d="M16 0zM412 700q26 0 34 -22l230 -678h-414l47 184h110l-77 262h-4l-121 -446h-201l214 678q7 22 32 22h150zM675 -24l-148 -59v-4h148v-184h-265q-27 0 -43.5 5t-26.5 14t-13.5 20t-3.5 23v52q0 28 13.5 47.5t45.5 30.5l155 55h138z" />
    <glyph glyph-name="Cacute" unicode="&#x106;" horiz-adv-x="573" 
d="M52 0zM519 700v-183h-156q-65 0 -93.5 -28t-28.5 -101v-75q0 -73 28.5 -101t93.5 -28h156v-184h-159q-82 0 -140.5 20.5t-95.5 59.5t-54.5 95.5t-17.5 128.5v92q0 72 17.5 128.5t54.5 95.5t95.5 59.5t140.5 20.5h159zM561 929l-140 -164h-169l100 164h209z" />
    <glyph glyph-name="cacute" unicode="&#x107;" horiz-adv-x="573" 
d="M52 0zM519 700v-183h-156q-65 0 -93.5 -28t-28.5 -101v-75q0 -73 28.5 -101t93.5 -28h156v-184h-159q-82 0 -140.5 20.5t-95.5 59.5t-54.5 95.5t-17.5 128.5v92q0 72 17.5 128.5t54.5 95.5t95.5 59.5t140.5 20.5h159zM561 929l-140 -164h-169l100 164h209z" />
    <glyph glyph-name="Cdotaccent" unicode="&#x10a;" horiz-adv-x="573" 
d="M52 0zM519 700v-183h-156q-65 0 -93.5 -28t-28.5 -101v-75q0 -73 28.5 -101t93.5 -28h156v-184h-159q-82 0 -140.5 20.5t-95.5 59.5t-54.5 95.5t-17.5 128.5v92q0 72 17.5 128.5t54.5 95.5t95.5 59.5t140.5 20.5h159zM436 929v-164h-159v164h159z" />
    <glyph glyph-name="cdotaccent" unicode="&#x10b;" horiz-adv-x="573" 
d="M52 0zM519 700v-183h-156q-65 0 -93.5 -28t-28.5 -101v-75q0 -73 28.5 -101t93.5 -28h156v-184h-159q-82 0 -140.5 20.5t-95.5 59.5t-54.5 95.5t-17.5 128.5v92q0 72 17.5 128.5t54.5 95.5t95.5 59.5t140.5 20.5h159zM436 929v-164h-159v164h159z" />
    <glyph glyph-name="Ccaron" unicode="&#x10c;" horiz-adv-x="573" 
d="M52 0zM519 700v-183h-156q-65 0 -93.5 -28t-28.5 -101v-75q0 -73 28.5 -101t93.5 -28h156v-184h-159q-82 0 -140.5 20.5t-95.5 59.5t-54.5 95.5t-17.5 128.5v92q0 72 17.5 128.5t54.5 95.5t95.5 59.5t140.5 20.5h159zM303 929l41 -70h4l40 70h172l-83 -139
q-8 -13 -27 -19t-46 -6h-116q-27 0 -46 6t-27 19l-82 139h170z" />
    <glyph glyph-name="ccaron" unicode="&#x10d;" horiz-adv-x="573" 
d="M52 0zM519 700v-183h-156q-65 0 -93.5 -28t-28.5 -101v-75q0 -73 28.5 -101t93.5 -28h156v-184h-159q-82 0 -140.5 20.5t-95.5 59.5t-54.5 95.5t-17.5 128.5v92q0 72 17.5 128.5t54.5 95.5t95.5 59.5t140.5 20.5h159zM303 929l41 -70h4l40 70h172l-83 -139
q-8 -13 -27 -19t-46 -6h-116q-27 0 -46 6t-27 19l-82 139h170z" />
    <glyph glyph-name="Dcaron" unicode="&#x10e;" horiz-adv-x="685" 
d="M66 0zM325 700q82 0 140.5 -20.5t95.5 -59.5t54.5 -95.5t17.5 -128.5v-92q0 -72 -17.5 -128.5t-54.5 -95.5t-95.5 -59.5t-140.5 -20.5h-197q-62 0 -62 62v576q0 62 62 62h197zM255 201q0 -17 15 -17h52q65 0 93.5 28t28.5 101v75q0 73 -28.5 101t-93.5 28h-52
q-15 0 -15 -17v-299zM264 929l41 -70h4l40 70h172l-83 -139q-8 -13 -27 -19t-46 -6h-116q-27 0 -46 6t-27 19l-82 139h170z" />
    <glyph glyph-name="dcaron" unicode="&#x10f;" horiz-adv-x="685" 
d="M66 0zM325 700q82 0 140.5 -20.5t95.5 -59.5t54.5 -95.5t17.5 -128.5v-92q0 -72 -17.5 -128.5t-54.5 -95.5t-95.5 -59.5t-140.5 -20.5h-197q-62 0 -62 62v576q0 62 62 62h197zM255 201q0 -17 15 -17h52q65 0 93.5 28t28.5 101v75q0 73 -28.5 101t-93.5 28h-52
q-15 0 -15 -17v-299zM264 929l41 -70h4l40 70h172l-83 -139q-8 -13 -27 -19t-46 -6h-116q-27 0 -46 6t-27 19l-82 139h170z" />
    <glyph glyph-name="Dcroat" unicode="&#x110;" horiz-adv-x="699" 
d="M19 0zM339 700q82 0 140.5 -20.5t95.5 -59.5t54.5 -95.5t17.5 -128.5v-92q0 -72 -17.5 -128.5t-54.5 -95.5t-95.5 -59.5t-140.5 -20.5h-197q-62 0 -62 62v209h-61v166h61v201q0 62 62 62h197zM269 201q0 -17 15 -17h63q65 0 93.5 28t28.5 101v75q0 73 -28.5 101t-93.5 28
h-63q-15 0 -15 -17v-299zM388 437v-166h-88v166h88z" />
    <glyph glyph-name="dcroat" unicode="&#x111;" horiz-adv-x="699" 
d="M19 0zM339 700q82 0 140.5 -20.5t95.5 -59.5t54.5 -95.5t17.5 -128.5v-92q0 -72 -17.5 -128.5t-54.5 -95.5t-95.5 -59.5t-140.5 -20.5h-197q-62 0 -62 62v209h-61v166h61v201q0 62 62 62h197zM269 201q0 -17 15 -17h63q65 0 93.5 28t28.5 101v75q0 73 -28.5 101t-93.5 28
h-63q-15 0 -15 -17v-299zM388 437v-166h-88v166h88z" />
    <glyph glyph-name="Emacron" unicode="&#x112;" horiz-adv-x="580" 
d="M26 0zM521 700v-183h-253q-15 0 -15 -17v-299q0 -17 15 -17h253v-184h-395q-62 0 -62 63v575q0 62 62 62h395zM519 437v-166h-235v166h235zM555 899v-124h-529v124h529z" />
    <glyph glyph-name="emacron" unicode="&#x113;" horiz-adv-x="580" 
d="M26 0zM521 700v-183h-253q-15 0 -15 -17v-299q0 -17 15 -17h253v-184h-395q-62 0 -62 63v575q0 62 62 62h395zM519 437v-166h-235v166h235zM555 899v-124h-529v124h529z" />
    <glyph glyph-name="Ebreve" unicode="&#x114;" horiz-adv-x="580" 
d="M64 0zM521 700v-183h-253q-15 0 -15 -17v-299q0 -17 15 -17h253v-184h-395q-62 0 -62 63v575q0 62 62 62h395zM519 437v-166h-235v166h235zM231 929q2 -52 14.5 -71.5t44.5 -19.5t44 19.5t14 71.5h131q-1 -46 -11.5 -82t-33 -60.5t-58 -37.5t-86.5 -13q-102 0 -145 50.5
t-44 142.5h130z" />
    <glyph glyph-name="ebreve" unicode="&#x115;" horiz-adv-x="580" 
d="M64 0zM521 700v-183h-253q-15 0 -15 -17v-299q0 -17 15 -17h253v-184h-395q-62 0 -62 63v575q0 62 62 62h395zM519 437v-166h-235v166h235zM231 929q2 -52 14.5 -71.5t44.5 -19.5t44 19.5t14 71.5h131q-1 -46 -11.5 -82t-33 -60.5t-58 -37.5t-86.5 -13q-102 0 -145 50.5
t-44 142.5h130z" />
    <glyph glyph-name="Edotaccent" unicode="&#x116;" horiz-adv-x="580" 
d="M64 0zM521 700v-183h-253q-15 0 -15 -17v-299q0 -17 15 -17h253v-184h-395q-62 0 -62 63v575q0 62 62 62h395zM519 437v-166h-235v166h235zM369 929v-164h-159v164h159z" />
    <glyph glyph-name="edotaccent" unicode="&#x117;" horiz-adv-x="580" 
d="M64 0zM521 700v-183h-253q-15 0 -15 -17v-299q0 -17 15 -17h253v-184h-395q-62 0 -62 63v575q0 62 62 62h395zM519 437v-166h-235v166h235zM369 929v-164h-159v164h159z" />
    <glyph glyph-name="Eogonek" unicode="&#x118;" horiz-adv-x="580" 
d="M64 0zM521 700v-183h-253q-15 0 -15 -17v-299q0 -17 15 -17h253v-184h-395q-62 0 -62 63v575q0 62 62 62h395zM519 437v-166h-235v166h235zM519 -24l-148 -59v-4h148v-184h-265q-27 0 -43.5 5t-26.5 14t-13.5 20t-3.5 23v52q0 28 13.5 47.5t45.5 30.5l155 55h138z" />
    <glyph glyph-name="eogonek" unicode="&#x119;" horiz-adv-x="580" 
d="M64 0zM521 700v-183h-253q-15 0 -15 -17v-299q0 -17 15 -17h253v-184h-395q-62 0 -62 63v575q0 62 62 62h395zM519 437v-166h-235v166h235zM519 -24l-148 -59v-4h148v-184h-265q-27 0 -43.5 5t-26.5 14t-13.5 20t-3.5 23v52q0 28 13.5 47.5t45.5 30.5l155 55h138z" />
    <glyph glyph-name="Ecaron" unicode="&#x11a;" horiz-adv-x="580" 
d="M64 0zM521 700v-183h-253q-15 0 -15 -17v-299q0 -17 15 -17h253v-184h-395q-62 0 -62 63v575q0 62 62 62h395zM519 437v-166h-235v166h235zM246 929l41 -70h4l40 70h172l-83 -139q-8 -13 -27 -19t-46 -6h-116q-27 0 -46 6t-27 19l-82 139h170z" />
    <glyph glyph-name="ecaron" unicode="&#x11b;" horiz-adv-x="580" 
d="M64 0zM521 700v-183h-253q-15 0 -15 -17v-299q0 -17 15 -17h253v-184h-395q-62 0 -62 63v575q0 62 62 62h395zM519 437v-166h-235v166h235zM246 929l41 -70h4l40 70h172l-83 -139q-8 -13 -27 -19t-46 -6h-116q-27 0 -46 6t-27 19l-82 139h170z" />
    <glyph glyph-name="Gbreve" unicode="&#x11e;" horiz-adv-x="636" 
d="M52 0zM555 700v-183h-196q-65 0 -93.5 -28t-28.5 -101v-80q0 -73 28.5 -101t93.5 -28h18q15 0 15 17v161h184v-294q0 -63 -62 -63h-154q-82 0 -140.5 20.5t-95.5 59.5t-54.5 95.5t-17.5 128.5v92q0 72 17.5 128.5t54.5 95.5t95.5 59.5t140.5 20.5h195zM289 929
q2 -52 14.5 -71.5t44.5 -19.5t44 19.5t14 71.5h131q-1 -46 -11.5 -82t-33 -60.5t-58 -37.5t-86.5 -13q-102 0 -145 50.5t-44 142.5h130z" />
    <glyph glyph-name="gbreve" unicode="&#x11f;" horiz-adv-x="636" 
d="M52 0zM555 700v-183h-196q-65 0 -93.5 -28t-28.5 -101v-80q0 -73 28.5 -101t93.5 -28h18q15 0 15 17v161h184v-294q0 -63 -62 -63h-154q-82 0 -140.5 20.5t-95.5 59.5t-54.5 95.5t-17.5 128.5v92q0 72 17.5 128.5t54.5 95.5t95.5 59.5t140.5 20.5h195zM289 929
q2 -52 14.5 -71.5t44.5 -19.5t44 19.5t14 71.5h131q-1 -46 -11.5 -82t-33 -60.5t-58 -37.5t-86.5 -13q-102 0 -145 50.5t-44 142.5h130z" />
    <glyph glyph-name="Gdotaccent" unicode="&#x120;" horiz-adv-x="636" 
d="M52 0zM555 700v-183h-196q-65 0 -93.5 -28t-28.5 -101v-80q0 -73 28.5 -101t93.5 -28h18q15 0 15 17v161h184v-294q0 -63 -62 -63h-154q-82 0 -140.5 20.5t-95.5 59.5t-54.5 95.5t-17.5 128.5v92q0 72 17.5 128.5t54.5 95.5t95.5 59.5t140.5 20.5h195zM427 929v-164h-159
v164h159z" />
    <glyph glyph-name="gdotaccent" unicode="&#x121;" horiz-adv-x="636" 
d="M52 0zM555 700v-183h-196q-65 0 -93.5 -28t-28.5 -101v-80q0 -73 28.5 -101t93.5 -28h18q15 0 15 17v161h184v-294q0 -63 -62 -63h-154q-82 0 -140.5 20.5t-95.5 59.5t-54.5 95.5t-17.5 128.5v92q0 72 17.5 128.5t54.5 95.5t95.5 59.5t140.5 20.5h195zM427 929v-164h-159
v164h159z" />
    <glyph glyph-name="Gcommaaccent" unicode="&#x122;" horiz-adv-x="636" 
d="M52 0zM555 700v-183h-196q-65 0 -93.5 -28t-28.5 -101v-80q0 -73 28.5 -101t93.5 -28h18q15 0 15 17v161h184v-294q0 -63 -62 -63h-154q-82 0 -140.5 20.5t-95.5 59.5t-54.5 95.5t-17.5 128.5v92q0 72 17.5 128.5t54.5 95.5t95.5 59.5t140.5 20.5h195zM465 -42l-99 -229
h-156l59 229h196z" />
    <glyph glyph-name="gcommaaccent" unicode="&#x123;" horiz-adv-x="636" 
d="M52 0zM555 700v-183h-196q-65 0 -93.5 -28t-28.5 -101v-80q0 -73 28.5 -101t93.5 -28h18q15 0 15 17v161h184v-294q0 -63 -62 -63h-154q-82 0 -140.5 20.5t-95.5 59.5t-54.5 95.5t-17.5 128.5v92q0 72 17.5 128.5t54.5 95.5t95.5 59.5t140.5 20.5h195zM465 -42l-99 -229
h-156l59 229h196z" />
    <glyph glyph-name="Hbar" unicode="&#x126;" horiz-adv-x="709" 
d="M285 495v124h169v81h189v-700h-189v271h-168v166h168v58h-169zM255 700v-700h-189v700h189z" />
    <glyph glyph-name="hbar" unicode="&#x127;" horiz-adv-x="709" 
d="M66 0zM285 495v124h169v81h189v-700h-189v271h-168v166h168v58h-169zM255 700v-700h-189v700h189z" />
    <glyph glyph-name="uni012A" unicode="&#x12a;" horiz-adv-x="497" 
d="M0 0zM343 700v-700h-189v700h189zM513 899v-124h-529v124h529z" />
    <glyph glyph-name="imacron" unicode="&#x12b;" horiz-adv-x="497" 
d="M0 0zM343 700v-700h-189v700h189zM513 899v-124h-529v124h529z" />
    <glyph glyph-name="Ibreve" unicode="&#x12c;" horiz-adv-x="376" 
d="M0 0zM282 700v-700h-189v700h189zM129 929q2 -52 14.5 -71.5t44.5 -19.5t44 19.5t14 71.5h131q-1 -46 -11.5 -82t-33 -60.5t-58 -37.5t-86.5 -13q-102 0 -145 50.5t-44 142.5h130z" />
    <glyph glyph-name="ibreve" unicode="&#x12d;" horiz-adv-x="376" 
d="M0 0zM282 700v-700h-189v700h189zM129 929q2 -52 14.5 -71.5t44.5 -19.5t44 19.5t14 71.5h131q-1 -46 -11.5 -82t-33 -60.5t-58 -37.5t-86.5 -13q-102 0 -145 50.5t-44 142.5h130z" />
    <glyph glyph-name="Iogonek" unicode="&#x12e;" horiz-adv-x="359" 
d="M0 0zM293 700v-700h-189v700h189zM291 -24l-148 -59v-4h148v-184h-265q-27 0 -43.5 5t-26.5 14t-13.5 20t-3.5 23v52q0 28 13.5 47.5t45.5 30.5l155 55h138z" />
    <glyph glyph-name="iogonek" unicode="&#x12f;" horiz-adv-x="359" 
d="M0 0zM293 700v-700h-189v700h189zM291 -24l-148 -59v-4h148v-184h-265q-27 0 -43.5 5t-26.5 14t-13.5 20t-3.5 23v52q0 28 13.5 47.5t45.5 30.5l155 55h138z" />
    <glyph glyph-name="Idotaccent" unicode="&#x130;" horiz-adv-x="321" 
d="M66 0zM255 700v-700h-189v700h189zM240 929v-164h-159v164h159z" />
    <glyph glyph-name="dotlessi" unicode="&#x131;" horiz-adv-x="321" 
d="M66 0zM255 700v-700h-189v700h189z" />
    <glyph glyph-name="IJ" unicode="&#x132;" horiz-adv-x="832" 
d="M66 0zM255 700v-700h-189v700h189zM774 700v-396q0 -72 -17.5 -128.5t-54.5 -95.5t-95.5 -59.5t-140.5 -20.5h-119v184h116q65 0 93.5 28t28.5 101v387h189z" />
    <glyph glyph-name="ij" unicode="&#x133;" horiz-adv-x="832" 
d="M66 0zM255 700v-700h-189v700h189zM774 700v-396q0 -72 -17.5 -128.5t-54.5 -95.5t-95.5 -59.5t-140.5 -20.5h-119v184h116q65 0 93.5 28t28.5 101v387h189z" />
    <glyph glyph-name="Kcommaaccent" unicode="&#x136;" horiz-adv-x="656" 
d="M66 0zM612 700l-124 -334l139 -366h-196l-95 243q-11 28 -37 28h-13v158h15q25 0 35 28l84 243h192zM255 700v-700h-189v700h189zM437 -42l-99 -229h-156l59 229h196z" />
    <glyph glyph-name="kcommaaccent" unicode="&#x137;" horiz-adv-x="656" 
d="M66 0zM612 700l-124 -334l139 -366h-196l-95 243q-11 28 -37 28h-13v158h15q25 0 35 28l84 243h192zM255 700v-700h-189v700h189zM437 -42l-99 -229h-156l59 229h196z" />
    <glyph glyph-name="Lacute" unicode="&#x139;" horiz-adv-x="549" 
d="M66 0zM255 700v-499q0 -17 15 -17h253v-184h-395q-62 0 -62 63v637h189zM391 929l-140 -164h-169l100 164h209z" />
    <glyph glyph-name="lacute" unicode="&#x13a;" horiz-adv-x="549" 
d="M66 0zM255 700v-499q0 -17 15 -17h253v-184h-395q-62 0 -62 63v637h189zM391 929l-140 -164h-169l100 164h209z" />
    <glyph glyph-name="Lcommaaccent" unicode="&#x13b;" horiz-adv-x="549" 
d="M66 0zM255 700v-499q0 -17 15 -17h253v-184h-395q-62 0 -62 63v637h189zM405 -42l-99 -229h-156l59 229h196z" />
    <glyph glyph-name="lcommaaccent" unicode="&#x13c;" horiz-adv-x="549" 
d="M66 0zM255 700v-499q0 -17 15 -17h253v-184h-395q-62 0 -62 63v637h189zM405 -42l-99 -229h-156l59 229h196z" />
    <glyph glyph-name="Lcaron" unicode="&#x13d;" horiz-adv-x="549" 
d="M66 0zM255 700v-499q0 -17 15 -17h253v-184h-395q-62 0 -62 63v637h189zM545 700l-99 -229h-156l59 229h196z" />
    <glyph glyph-name="lcaron" unicode="&#x13e;" horiz-adv-x="549" 
d="M66 0zM255 700v-499q0 -17 15 -17h253v-184h-395q-62 0 -62 63v637h189zM545 700l-99 -229h-156l59 229h196z" />
    <glyph glyph-name="Ldot" unicode="&#x13f;" horiz-adv-x="549" 
d="M66 0zM255 700v-499q0 -17 15 -17h253v-184h-395q-62 0 -62 63v637h189zM483 437v-164h-159v164h159z" />
    <glyph glyph-name="ldot" unicode="&#x140;" horiz-adv-x="549" 
d="M66 0zM255 700v-499q0 -17 15 -17h253v-184h-395q-62 0 -62 63v637h189zM483 437v-164h-159v164h159z" />
    <glyph glyph-name="Lslash" unicode="&#x141;" horiz-adv-x="549" 
d="M255 700v-199l161 94v-126l-161 -94v-174q0 -17 15 -17h253v-184h-395q-62 0 -62 63v637h189z" />
    <glyph glyph-name="lslash" unicode="&#x142;" horiz-adv-x="549" 
d="M66 0zM255 700v-199l161 94v-126l-161 -94v-174q0 -17 15 -17h253v-184h-395q-62 0 -62 63v637h189z" />
    <glyph glyph-name="Nacute" unicode="&#x143;" horiz-adv-x="690" 
d="M64 0zM217 700q48 0 71 -44l150 -287h4v331h184v-657q0 -18 -10 -30.5t-27 -12.5h-89q-46 0 -71 44l-177 304h-4v-348h-184v657q0 18 10 30.5t27 12.5h116zM549 929l-140 -164h-169l100 164h209z" />
    <glyph glyph-name="nacute" unicode="&#x144;" horiz-adv-x="690" 
d="M64 0zM217 700q48 0 71 -44l150 -287h4v331h184v-657q0 -18 -10 -30.5t-27 -12.5h-89q-46 0 -71 44l-177 304h-4v-348h-184v657q0 18 10 30.5t27 12.5h116zM549 929l-140 -164h-169l100 164h209z" />
    <glyph glyph-name="Ncommaaccent" unicode="&#x145;" horiz-adv-x="690" 
d="M64 0zM217 700q48 0 71 -44l150 -287h4v331h184v-657q0 -18 -10 -30.5t-27 -12.5h-89q-46 0 -71 44l-177 304h-4v-348h-184v657q0 18 10 30.5t27 12.5h116zM452 -42l-99 -229h-156l59 229h196z" />
    <glyph glyph-name="ncommaaccent" unicode="&#x146;" horiz-adv-x="690" 
d="M64 0zM217 700q48 0 71 -44l150 -287h4v331h184v-657q0 -18 -10 -30.5t-27 -12.5h-89q-46 0 -71 44l-177 304h-4v-348h-184v657q0 18 10 30.5t27 12.5h116zM452 -42l-99 -229h-156l59 229h196z" />
    <glyph glyph-name="Ncaron" unicode="&#x147;" horiz-adv-x="690" 
d="M64 0zM217 700q48 0 71 -44l150 -287h4v331h184v-657q0 -18 -10 -30.5t-27 -12.5h-89q-46 0 -71 44l-177 304h-4v-348h-184v657q0 18 10 30.5t27 12.5h116zM301 929l41 -70h4l40 70h172l-83 -139q-8 -13 -27 -19t-46 -6h-116q-27 0 -46 6t-27 19l-82 139h170z" />
    <glyph glyph-name="ncaron" unicode="&#x148;" horiz-adv-x="690" 
d="M64 0zM217 700q48 0 71 -44l150 -287h4v331h184v-657q0 -18 -10 -30.5t-27 -12.5h-89q-46 0 -71 44l-177 304h-4v-348h-184v657q0 18 10 30.5t27 12.5h116zM301 929l41 -70h4l40 70h172l-83 -139q-8 -13 -27 -19t-46 -6h-116q-27 0 -46 6t-27 19l-82 139h170z" />
    <glyph glyph-name="Eng" unicode="&#x14a;" horiz-adv-x="690" 
d="M217 700q48 0 71 -44l150 -287h4v331h184v-668q0 -72 -17.5 -128t-54.5 -95t-95.5 -59.5t-140.5 -20.5h-70v183h67q61 0 92 25t34 89l-189 322h-4v-348h-184v657q0 18 10 30.5t27 12.5h116z" />
    <glyph glyph-name="eng" unicode="&#x14b;" horiz-adv-x="690" 
d="M64 0zM217 700q48 0 71 -44l150 -287h4v331h184v-668q0 -72 -17.5 -128t-54.5 -95t-95.5 -59.5t-140.5 -20.5h-70v183h67q61 0 92 25t34 89l-189 322h-4v-348h-184v657q0 18 10 30.5t27 12.5h116z" />
    <glyph glyph-name="Omacron" unicode="&#x14c;" horiz-adv-x="706" 
d="M52 0zM52 406q0 72 16 128.5t52 95.5t93.5 59.5t139.5 20.5t139.5 -20.5t93.5 -59.5t52 -95.5t16 -128.5v-112q0 -72 -16 -128.5t-52 -95.5t-93.5 -59.5t-139.5 -20.5t-139.5 20.5t-93.5 59.5t-52 95.5t-16 128.5v112zM241 302q0 -36 5.5 -61t18.5 -40t34.5 -21.5
t53.5 -6.5t53.5 6.5t34.5 21.5t18.5 40t5.5 61v96q0 36 -5.5 61t-18.5 40t-34.5 21.5t-53.5 6.5t-53.5 -6.5t-34.5 -21.5t-18.5 -40t-5.5 -61v-96zM617 899v-124h-529v124h529z" />
    <glyph glyph-name="omacron" unicode="&#x14d;" horiz-adv-x="706" 
d="M52 0zM52 406q0 72 16 128.5t52 95.5t93.5 59.5t139.5 20.5t139.5 -20.5t93.5 -59.5t52 -95.5t16 -128.5v-112q0 -72 -16 -128.5t-52 -95.5t-93.5 -59.5t-139.5 -20.5t-139.5 20.5t-93.5 59.5t-52 95.5t-16 128.5v112zM241 302q0 -36 5.5 -61t18.5 -40t34.5 -21.5
t53.5 -6.5t53.5 6.5t34.5 21.5t18.5 40t5.5 61v96q0 36 -5.5 61t-18.5 40t-34.5 21.5t-53.5 6.5t-53.5 -6.5t-34.5 -21.5t-18.5 -40t-5.5 -61v-96zM617 899v-124h-529v124h529z" />
    <glyph glyph-name="Obreve" unicode="&#x14e;" horiz-adv-x="706" 
d="M52 0zM52 406q0 72 16 128.5t52 95.5t93.5 59.5t139.5 20.5t139.5 -20.5t93.5 -59.5t52 -95.5t16 -128.5v-112q0 -72 -16 -128.5t-52 -95.5t-93.5 -59.5t-139.5 -20.5t-139.5 20.5t-93.5 59.5t-52 95.5t-16 128.5v112zM241 302q0 -36 5.5 -61t18.5 -40t34.5 -21.5
t53.5 -6.5t53.5 6.5t34.5 21.5t18.5 40t5.5 61v96q0 36 -5.5 61t-18.5 40t-34.5 21.5t-53.5 6.5t-53.5 -6.5t-34.5 -21.5t-18.5 -40t-5.5 -61v-96zM294 929q2 -52 14.5 -71.5t44.5 -19.5t44 19.5t14 71.5h131q-1 -46 -11.5 -82t-33 -60.5t-58 -37.5t-86.5 -13
q-102 0 -145 50.5t-44 142.5h130z" />
    <glyph glyph-name="obreve" unicode="&#x14f;" horiz-adv-x="706" 
d="M52 0zM52 406q0 72 16 128.5t52 95.5t93.5 59.5t139.5 20.5t139.5 -20.5t93.5 -59.5t52 -95.5t16 -128.5v-112q0 -72 -16 -128.5t-52 -95.5t-93.5 -59.5t-139.5 -20.5t-139.5 20.5t-93.5 59.5t-52 95.5t-16 128.5v112zM241 302q0 -36 5.5 -61t18.5 -40t34.5 -21.5
t53.5 -6.5t53.5 6.5t34.5 21.5t18.5 40t5.5 61v96q0 36 -5.5 61t-18.5 40t-34.5 21.5t-53.5 6.5t-53.5 -6.5t-34.5 -21.5t-18.5 -40t-5.5 -61v-96zM294 929q2 -52 14.5 -71.5t44.5 -19.5t44 19.5t14 71.5h131q-1 -46 -11.5 -82t-33 -60.5t-58 -37.5t-86.5 -13
q-102 0 -145 50.5t-44 142.5h130z" />
    <glyph glyph-name="Ohungarumlaut" unicode="&#x150;" horiz-adv-x="706" 
d="M52 0zM52 406q0 72 16 128.5t52 95.5t93.5 59.5t139.5 20.5t139.5 -20.5t93.5 -59.5t52 -95.5t16 -128.5v-112q0 -72 -16 -128.5t-52 -95.5t-93.5 -59.5t-139.5 -20.5t-139.5 20.5t-93.5 59.5t-52 95.5t-16 128.5v112zM241 302q0 -36 5.5 -61t18.5 -40t34.5 -21.5
t53.5 -6.5t53.5 6.5t34.5 21.5t18.5 40t5.5 61v96q0 36 -5.5 61t-18.5 40t-34.5 21.5t-53.5 6.5t-53.5 -6.5t-34.5 -21.5t-18.5 -40t-5.5 -61v-96zM688 929l-150 -164h-173l114 164h209zM408 929l-125 -164h-165l89 164h201z" />
    <glyph glyph-name="ohungarumlaut" unicode="&#x151;" horiz-adv-x="706" 
d="M52 0zM52 406q0 72 16 128.5t52 95.5t93.5 59.5t139.5 20.5t139.5 -20.5t93.5 -59.5t52 -95.5t16 -128.5v-112q0 -72 -16 -128.5t-52 -95.5t-93.5 -59.5t-139.5 -20.5t-139.5 20.5t-93.5 59.5t-52 95.5t-16 128.5v112zM241 302q0 -36 5.5 -61t18.5 -40t34.5 -21.5
t53.5 -6.5t53.5 6.5t34.5 21.5t18.5 40t5.5 61v96q0 36 -5.5 61t-18.5 40t-34.5 21.5t-53.5 6.5t-53.5 -6.5t-34.5 -21.5t-18.5 -40t-5.5 -61v-96zM688 929l-150 -164h-173l114 164h209zM408 929l-125 -164h-165l89 164h201z" />
    <glyph glyph-name="OE" unicode="&#x152;" horiz-adv-x="946" 
d="M887 700v-183h-268v-333h268v-184h-527q-82 0 -140.5 20.5t-95.5 59.5t-54.5 95.5t-17.5 128.5v92q0 72 17.5 128.5t54.5 95.5t95.5 59.5t140.5 20.5h527zM241 313q0 -73 28.5 -101t93.5 -28h67v333h-67q-65 0 -93.5 -28t-28.5 -101v-75zM885 437v-166h-235v166h235z" />
    <glyph glyph-name="oe" unicode="&#x153;" horiz-adv-x="946" 
d="M52 0zM887 700v-183h-268v-333h268v-184h-527q-82 0 -140.5 20.5t-95.5 59.5t-54.5 95.5t-17.5 128.5v92q0 72 17.5 128.5t54.5 95.5t95.5 59.5t140.5 20.5h527zM241 313q0 -73 28.5 -101t93.5 -28h67v333h-67q-65 0 -93.5 -28t-28.5 -101v-75zM885 437v-166h-235v166
h235z" />
    <glyph glyph-name="Racute" unicode="&#x154;" horiz-adv-x="676" 
d="M66 0zM414 700q189 0 189 -186v-41q0 -50 -12.5 -73.5t-38.5 -38.5q29 -11 48.5 -40.5t19.5 -77.5v-243h-188v235q0 15 -6.5 25.5t-25.5 10.5h-114v158h106q20 0 26.5 10.5t6.5 25.5v21q0 38 -36 38h-119q-15 0 -15 -17v-507h-189v638q0 62 62 62h286zM542 929l-140 -164
h-169l100 164h209z" />
    <glyph glyph-name="racute" unicode="&#x155;" horiz-adv-x="676" 
d="M66 0zM414 700q189 0 189 -186v-41q0 -50 -12.5 -73.5t-38.5 -38.5q29 -11 48.5 -40.5t19.5 -77.5v-243h-188v235q0 15 -6.5 25.5t-25.5 10.5h-114v158h106q20 0 26.5 10.5t6.5 25.5v21q0 38 -36 38h-119q-15 0 -15 -17v-507h-189v638q0 62 62 62h286zM542 929l-140 -164
h-169l100 164h209z" />
    <glyph glyph-name="Rcommaaccent" unicode="&#x156;" horiz-adv-x="676" 
d="M66 0zM414 700q189 0 189 -186v-41q0 -50 -12.5 -73.5t-38.5 -38.5q29 -11 48.5 -40.5t19.5 -77.5v-243h-188v235q0 15 -6.5 25.5t-25.5 10.5h-114v158h106q20 0 26.5 10.5t6.5 25.5v21q0 38 -36 38h-119q-15 0 -15 -17v-507h-189v638q0 62 62 62h286zM442 -42l-99 -229
h-156l59 229h196z" />
    <glyph glyph-name="rcommaaccent" unicode="&#x157;" horiz-adv-x="676" 
d="M66 0zM414 700q189 0 189 -186v-41q0 -50 -12.5 -73.5t-38.5 -38.5q29 -11 48.5 -40.5t19.5 -77.5v-243h-188v235q0 15 -6.5 25.5t-25.5 10.5h-114v158h106q20 0 26.5 10.5t6.5 25.5v21q0 38 -36 38h-119q-15 0 -15 -17v-507h-189v638q0 62 62 62h286zM442 -42l-99 -229
h-156l59 229h196z" />
    <glyph glyph-name="Rcaron" unicode="&#x158;" horiz-adv-x="676" 
d="M66 0zM414 700q189 0 189 -186v-41q0 -50 -12.5 -73.5t-38.5 -38.5q29 -11 48.5 -40.5t19.5 -77.5v-243h-188v235q0 15 -6.5 25.5t-25.5 10.5h-114v158h106q20 0 26.5 10.5t6.5 25.5v21q0 38 -36 38h-119q-15 0 -15 -17v-507h-189v638q0 62 62 62h286zM294 929l41 -70h4
l40 70h172l-83 -139q-8 -13 -27 -19t-46 -6h-116q-27 0 -46 6t-27 19l-82 139h170z" />
    <glyph glyph-name="rcaron" unicode="&#x159;" horiz-adv-x="676" 
d="M66 0zM414 700q189 0 189 -186v-41q0 -50 -12.5 -73.5t-38.5 -38.5q29 -11 48.5 -40.5t19.5 -77.5v-243h-188v235q0 15 -6.5 25.5t-25.5 10.5h-114v158h106q20 0 26.5 10.5t6.5 25.5v21q0 38 -36 38h-119q-15 0 -15 -17v-507h-189v638q0 62 62 62h286zM294 929l41 -70h4
l40 70h172l-83 -139q-8 -13 -27 -19t-46 -6h-116q-27 0 -46 6t-27 19l-82 139h170z" />
    <glyph glyph-name="Sacute" unicode="&#x15a;" horiz-adv-x="640" 
d="M53 0zM560 700v-183h-293q-36 0 -36 -38v-21q0 -36 33 -36h152q92 0 131.5 -42.5t39.5 -121.5v-72q0 -186 -189 -186h-333v184h308q36 0 36 38v21q0 18 -7 27t-26 9h-162q-43 0 -73.5 11.5t-50 32t-28.5 48t-9 59.5v84q0 186 189 186h318zM524 929l-140 -164h-169
l100 164h209z" />
    <glyph glyph-name="sacute" unicode="&#x15b;" horiz-adv-x="640" 
d="M53 0zM560 700v-183h-293q-36 0 -36 -38v-21q0 -36 33 -36h152q92 0 131.5 -42.5t39.5 -121.5v-72q0 -186 -189 -186h-333v184h308q36 0 36 38v21q0 18 -7 27t-26 9h-162q-43 0 -73.5 11.5t-50 32t-28.5 48t-9 59.5v84q0 186 189 186h318zM524 929l-140 -164h-169
l100 164h209z" />
    <glyph glyph-name="Scedilla" unicode="&#x15e;" horiz-adv-x="640" 
d="M53 0zM560 700v-183h-293q-36 0 -36 -38v-21q0 -36 33 -36h152q92 0 131.5 -42.5t39.5 -121.5v-72q0 -186 -189 -186h-333v184h308q36 0 36 38v21q0 18 -7 27t-26 9h-162q-43 0 -73.5 11.5t-50 32t-28.5 48t-9 59.5v84q0 186 189 186h318zM417 -42l-99 -229h-156l59 229
h196z" />
    <glyph glyph-name="scedilla" unicode="&#x15f;" horiz-adv-x="640" 
d="M53 0zM560 700v-183h-293q-36 0 -36 -38v-21q0 -36 33 -36h152q92 0 131.5 -42.5t39.5 -121.5v-72q0 -186 -189 -186h-333v184h308q36 0 36 38v21q0 18 -7 27t-26 9h-162q-43 0 -73.5 11.5t-50 32t-28.5 48t-9 59.5v84q0 186 189 186h318zM417 -42l-99 -229h-156l59 229
h196z" />
    <glyph glyph-name="Scaron" unicode="&#x160;" horiz-adv-x="640" 
d="M53 0zM560 700v-183h-293q-36 0 -36 -38v-21q0 -36 33 -36h152q92 0 131.5 -42.5t39.5 -121.5v-72q0 -186 -189 -186h-333v184h308q36 0 36 38v21q0 18 -7 27t-26 9h-162q-43 0 -73.5 11.5t-50 32t-28.5 48t-9 59.5v84q0 186 189 186h318zM276 929l41 -70h4l40 70h172
l-83 -139q-8 -13 -27 -19t-46 -6h-116q-27 0 -46 6t-27 19l-82 139h170z" />
    <glyph glyph-name="scaron" unicode="&#x161;" horiz-adv-x="640" 
d="M53 0zM560 700v-183h-293q-36 0 -36 -38v-21q0 -36 33 -36h152q92 0 131.5 -42.5t39.5 -121.5v-72q0 -186 -189 -186h-333v184h308q36 0 36 38v21q0 18 -7 27t-26 9h-162q-43 0 -73.5 11.5t-50 32t-28.5 48t-9 59.5v84q0 186 189 186h318zM276 929l41 -70h4l40 70h172
l-83 -139q-8 -13 -27 -19t-46 -6h-116q-27 0 -46 6t-27 19l-82 139h170z" />
    <glyph glyph-name="Tcedilla" unicode="&#x162;" horiz-adv-x="588" 
d="M26 0zM562 700v-183h-536v183h536zM389 486v-486h-189v486h189zM387 -42l-99 -229h-156l59 229h196z" />
    <glyph glyph-name="tcedilla" unicode="&#x163;" horiz-adv-x="588" 
d="M26 0zM562 700v-183h-536v183h536zM389 486v-486h-189v486h189zM387 -42l-99 -229h-156l59 229h196z" />
    <glyph glyph-name="Tcaron" unicode="&#x164;" horiz-adv-x="588" 
d="M26 0zM562 700v-183h-536v183h536zM389 486v-486h-189v486h189zM250 929l41 -70h4l40 70h172l-83 -139q-8 -13 -27 -19t-46 -6h-116q-27 0 -46 6t-27 19l-82 139h170z" />
    <glyph glyph-name="tcaron" unicode="&#x165;" horiz-adv-x="588" 
d="M26 0zM562 700v-183h-536v183h536zM389 486v-486h-189v486h189zM250 929l41 -70h4l40 70h172l-83 -139q-8 -13 -27 -19t-46 -6h-116q-27 0 -46 6t-27 19l-82 139h170z" />
    <glyph glyph-name="Tbar" unicode="&#x166;" horiz-adv-x="588" 
d="M511 438v-166h-122v-272h-189v272h-124v166h435zM562 700v-183h-536v183h536z" />
    <glyph glyph-name="tbar" unicode="&#x167;" horiz-adv-x="588" 
d="M26 0zM511 438v-166h-122v-272h-189v272h-124v166h435zM562 700v-183h-536v183h536z" />
    <glyph glyph-name="Utilde" unicode="&#x168;" 
d="M61 0zM250 700v-479q0 -37 35 -37h109q35 0 35 37v479h189v-567q0 -133 -132 -133h-293q-132 0 -132 133v567h189zM74 876q20 25 52 39t77 14q42 0 74.5 -11t61.5 -24t57.5 -24t63.5 -11q34 0 69.5 14.5t65.5 53.5h9v-137q-23 -25 -62.5 -39t-81.5 -14q-39 0 -69.5 10.5
t-59 23.5t-58 23.5t-66.5 10.5t-66 -14t-57 -51h-10v136z" />
    <glyph glyph-name="utilde" unicode="&#x169;" 
d="M61 0zM250 700v-479q0 -37 35 -37h109q35 0 35 37v479h189v-567q0 -133 -132 -133h-293q-132 0 -132 133v567h189zM74 876q20 25 52 39t77 14q42 0 74.5 -11t61.5 -24t57.5 -24t63.5 -11q34 0 69.5 14.5t65.5 53.5h9v-137q-23 -25 -62.5 -39t-81.5 -14q-39 0 -69.5 10.5
t-59 23.5t-58 23.5t-66.5 10.5t-66 -14t-57 -51h-10v136z" />
    <glyph glyph-name="Umacron" unicode="&#x16a;" 
d="M61 0zM250 700v-479q0 -37 35 -37h109q35 0 35 37v479h189v-567q0 -133 -132 -133h-293q-132 0 -132 133v567h189zM604 899v-124h-529v124h529z" />
    <glyph glyph-name="umacron" unicode="&#x16b;" 
d="M61 0zM250 700v-479q0 -37 35 -37h109q35 0 35 37v479h189v-567q0 -133 -132 -133h-293q-132 0 -132 133v567h189zM604 899v-124h-529v124h529z" />
    <glyph glyph-name="Ubreve" unicode="&#x16c;" 
d="M61 0zM250 700v-479q0 -37 35 -37h109q35 0 35 37v479h189v-567q0 -133 -132 -133h-293q-132 0 -132 133v567h189zM280 929q2 -52 14.5 -71.5t44.5 -19.5t44 19.5t14 71.5h131q-1 -46 -11.5 -82t-33 -60.5t-58 -37.5t-86.5 -13q-102 0 -145 50.5t-44 142.5h130z" />
    <glyph glyph-name="ubreve" unicode="&#x16d;" 
d="M61 0zM250 700v-479q0 -37 35 -37h109q35 0 35 37v479h189v-567q0 -133 -132 -133h-293q-132 0 -132 133v567h189zM280 929q2 -52 14.5 -71.5t44.5 -19.5t44 19.5t14 71.5h131q-1 -46 -11.5 -82t-33 -60.5t-58 -37.5t-86.5 -13q-102 0 -145 50.5t-44 142.5h130z" />
    <glyph glyph-name="Uring" unicode="&#x16e;" 
d="M61 0zM250 700v-479q0 -37 35 -37h109q35 0 35 37v479h189v-567q0 -133 -132 -133h-293q-132 0 -132 133v567h189zM213 834q0 45 28.5 70t98.5 25q69 0 97.5 -25t28.5 -70v-34q0 -45 -28.5 -70t-97.5 -25q-70 0 -98.5 25t-28.5 70v34zM303 806q0 -17 8 -23.5t29 -6.5
q20 0 28 6.5t8 23.5v22q0 17 -8 24t-28 7q-21 0 -29 -7t-8 -24v-22z" />
    <glyph glyph-name="uring" unicode="&#x16f;" 
d="M61 0zM250 700v-479q0 -37 35 -37h109q35 0 35 37v479h189v-567q0 -133 -132 -133h-293q-132 0 -132 133v567h189zM213 834q0 45 28.5 70t98.5 25q69 0 97.5 -25t28.5 -70v-34q0 -45 -28.5 -70t-97.5 -25q-70 0 -98.5 25t-28.5 70v34zM303 806q0 -17 8 -23.5t29 -6.5
q20 0 28 6.5t8 23.5v22q0 17 -8 24t-28 7q-21 0 -29 -7t-8 -24v-22z" />
    <glyph glyph-name="Uhungarumlaut" unicode="&#x170;" 
d="M61 0zM250 700v-479q0 -37 35 -37h109q35 0 35 37v479h189v-567q0 -133 -132 -133h-293q-132 0 -132 133v567h189zM675 929l-150 -164h-173l114 164h209zM395 929l-125 -164h-165l89 164h201z" />
    <glyph glyph-name="uhungarumlaut" unicode="&#x171;" 
d="M61 0zM250 700v-479q0 -37 35 -37h109q35 0 35 37v479h189v-567q0 -133 -132 -133h-293q-132 0 -132 133v567h189zM675 929l-150 -164h-173l114 164h209zM395 929l-125 -164h-165l89 164h201z" />
    <glyph glyph-name="Uogonek" unicode="&#x172;" 
d="M61 0zM250 700v-479q0 -37 35 -37h109q35 0 35 37v479h189v-567q0 -133 -132 -133h-293q-132 0 -132 133v567h189zM499 -24l-148 -59v-4h148v-184h-265q-27 0 -43.5 5t-26.5 14t-13.5 20t-3.5 23v52q0 28 13.5 47.5t45.5 30.5l155 55h138z" />
    <glyph glyph-name="uogonek" unicode="&#x173;" 
d="M61 0zM250 700v-479q0 -37 35 -37h109q35 0 35 37v479h189v-567q0 -133 -132 -133h-293q-132 0 -132 133v567h189zM499 -24l-148 -59v-4h148v-184h-265q-27 0 -43.5 5t-26.5 14t-13.5 20t-3.5 23v52q0 28 13.5 47.5t45.5 30.5l155 55h138z" />
    <glyph glyph-name="Wcircumflex" unicode="&#x174;" horiz-adv-x="960" 
d="M61 0zM250 700v-479q0 -37 35 -37h69q35 0 35 37v479h91h91v-479q0 -37 35 -37h69q35 0 35 37v479h189v-567q0 -133 -132 -133h-199q-37 0 -58.5 16.5t-29.5 36.5q-8 -20 -29.5 -36.5t-58.5 -16.5h-199q-132 0 -132 133v567h189zM538 929q27 0 46 -6t27 -19l82 -139h-170
l-41 70h-4l-40 -70h-172l83 139q8 13 27 19t46 6h116z" />
    <glyph glyph-name="wcircumflex" unicode="&#x175;" horiz-adv-x="960" 
d="M61 0zM250 700v-479q0 -37 35 -37h69q35 0 35 37v479h91h91v-479q0 -37 35 -37h69q35 0 35 37v479h189v-567q0 -133 -132 -133h-199q-37 0 -58.5 16.5t-29.5 36.5q-8 -20 -29.5 -36.5t-58.5 -16.5h-199q-132 0 -132 133v567h189zM538 929q27 0 46 -6t27 -19l82 -139h-170
l-41 70h-4l-40 -70h-172l83 139q8 13 27 19t46 6h116z" />
    <glyph glyph-name="Ycircumflex" unicode="&#x176;" horiz-adv-x="649" 
d="M46 0zM419 240v-240h-189v240h189zM235 700v-225q0 -37 35 -37h109q35 0 35 37v225h189v-296q0 -133 -132 -133h-293q-132 0 -132 133v296h189zM383 929q27 0 46 -6t27 -19l82 -139h-170l-41 70h-4l-40 -70h-172l83 139q8 13 27 19t46 6h116z" />
    <glyph glyph-name="ycircumflex" unicode="&#x177;" horiz-adv-x="649" 
d="M46 0zM419 240v-240h-189v240h189zM235 700v-225q0 -37 35 -37h109q35 0 35 37v225h189v-296q0 -133 -132 -133h-293q-132 0 -132 133v296h189zM383 929q27 0 46 -6t27 -19l82 -139h-170l-41 70h-4l-40 -70h-172l83 139q8 13 27 19t46 6h116z" />
    <glyph glyph-name="Ydieresis" unicode="&#x178;" horiz-adv-x="649" 
d="M46 0zM419 240v-240h-189v240h189zM235 700v-225q0 -37 35 -37h109q35 0 35 37v225h189v-296q0 -133 -132 -133h-293q-132 0 -132 133v296h189zM534 929v-164h-159v164h159zM274 929v-164h-159v164h159z" />
    <glyph glyph-name="Zacute" unicode="&#x179;" horiz-adv-x="628" 
d="M51 0zM508 700q62 0 62 -63v-68q0 -14 -3 -24.5t-12 -22.5l-241 -334v-4h263v-184h-464q-62 0 -62 63v68q0 14 3 24.5t12 22.5l254 335v4h-257v183h445zM518 929l-140 -164h-169l100 164h209z" />
    <glyph glyph-name="zacute" unicode="&#x17a;" horiz-adv-x="628" 
d="M51 0zM508 700q62 0 62 -63v-68q0 -14 -3 -24.5t-12 -22.5l-241 -334v-4h263v-184h-464q-62 0 -62 63v68q0 14 3 24.5t12 22.5l254 335v4h-257v183h445zM518 929l-140 -164h-169l100 164h209z" />
    <glyph glyph-name="Zdotaccent" unicode="&#x17b;" horiz-adv-x="628" 
d="M51 0zM508 700q62 0 62 -63v-68q0 -14 -3 -24.5t-12 -22.5l-241 -334v-4h263v-184h-464q-62 0 -62 63v68q0 14 3 24.5t12 22.5l254 335v4h-257v183h445zM393 929v-164h-159v164h159z" />
    <glyph glyph-name="zdotaccent" unicode="&#x17c;" horiz-adv-x="628" 
d="M51 0zM508 700q62 0 62 -63v-68q0 -14 -3 -24.5t-12 -22.5l-241 -334v-4h263v-184h-464q-62 0 -62 63v68q0 14 3 24.5t12 22.5l254 335v4h-257v183h445zM393 929v-164h-159v164h159z" />
    <glyph glyph-name="Zcaron" unicode="&#x17d;" horiz-adv-x="628" 
d="M51 0zM508 700q62 0 62 -63v-68q0 -14 -3 -24.5t-12 -22.5l-241 -334v-4h263v-184h-464q-62 0 -62 63v68q0 14 3 24.5t12 22.5l254 335v4h-257v183h445zM270 929l41 -70h4l40 70h172l-83 -139q-8 -13 -27 -19t-46 -6h-116q-27 0 -46 6t-27 19l-82 139h170z" />
    <glyph glyph-name="zcaron" unicode="&#x17e;" horiz-adv-x="628" 
d="M51 0zM508 700q62 0 62 -63v-68q0 -14 -3 -24.5t-12 -22.5l-241 -334v-4h263v-184h-464q-62 0 -62 63v68q0 14 3 24.5t12 22.5l254 335v4h-257v183h445zM270 929l41 -70h4l40 70h172l-83 -139q-8 -13 -27 -19t-46 -6h-116q-27 0 -46 6t-27 19l-82 139h170z" />
    <glyph glyph-name="florin" unicode="&#x192;" horiz-adv-x="572" 
d="M180 380v16q0 72 17.5 128.5t54.5 95.5t95.5 59.5t140.5 20.5h49v-184h-46q-65 0 -93.5 -28t-28.5 -101v-297h-1v-42q0 -72 -17.5 -128.5t-54.5 -95.5t-95.5 -59.5t-140.5 -20.5h-59v184h56q65 0 93.5 28t28.5 101v167h-62v156h63zM537 380v-156h-138v156h138z" />
    <glyph glyph-name="Scommaaccent" unicode="&#x218;" horiz-adv-x="640" 
d="M53 0zM560 700v-183h-293q-36 0 -36 -38v-21q0 -36 33 -36h152q92 0 131.5 -42.5t39.5 -121.5v-72q0 -186 -189 -186h-333v184h308q36 0 36 38v21q0 18 -7 27t-26 9h-162q-43 0 -73.5 11.5t-50 32t-28.5 48t-9 59.5v84q0 186 189 186h318zM417 -42l-99 -229h-156l59 229
h196z" />
    <glyph glyph-name="scommaaccent" unicode="&#x219;" horiz-adv-x="640" 
d="M53 0zM560 700v-183h-293q-36 0 -36 -38v-21q0 -36 33 -36h152q92 0 131.5 -42.5t39.5 -121.5v-72q0 -186 -189 -186h-333v184h308q36 0 36 38v21q0 18 -7 27t-26 9h-162q-43 0 -73.5 11.5t-50 32t-28.5 48t-9 59.5v84q0 186 189 186h318zM417 -42l-99 -229h-156l59 229
h196z" />
    <glyph glyph-name="uni021A" unicode="&#x21a;" horiz-adv-x="588" 
d="M26 0zM562 700v-183h-536v183h536zM389 486v-486h-189v486h189zM387 -42l-99 -229h-156l59 229h196z" />
    <glyph glyph-name="uni021B" unicode="&#x21b;" horiz-adv-x="588" 
d="M26 0zM562 700v-183h-536v183h536zM389 486v-486h-189v486h189zM387 -42l-99 -229h-156l59 229h196z" />
    <glyph glyph-name="circumflex" unicode="&#x2c6;" horiz-adv-x="559" 
d="M338 929q27 0 46 -6t27 -19l82 -139h-170l-41 70h-4l-40 -70h-172l83 139q8 13 27 19t46 6h116z" />
    <glyph glyph-name="caron" unicode="&#x2c7;" horiz-adv-x="559" 
d="M236 929l41 -70h4l40 70h172l-83 -139q-8 -13 -27 -19t-46 -6h-116q-27 0 -46 6t-27 19l-82 139h170z" />
    <glyph glyph-name="breve" unicode="&#x2d8;" horiz-adv-x="510" 
d="M196 929q2 -52 14.5 -71.5t44.5 -19.5t44 19.5t14 71.5h131q-1 -46 -11.5 -82t-33 -60.5t-58 -37.5t-86.5 -13q-102 0 -145 50.5t-44 142.5h130z" />
    <glyph glyph-name="dotaccent" unicode="&#x2d9;" horiz-adv-x="291" 
d="M225 929v-164h-159v164h159z" />
    <glyph glyph-name="ring" unicode="&#x2da;" horiz-adv-x="385" 
d="M66 834q0 45 28.5 70t98.5 25q69 0 97.5 -25t28.5 -70v-34q0 -45 -28.5 -70t-97.5 -25q-70 0 -98.5 25t-28.5 70v34zM156 806q0 -17 8 -23.5t29 -6.5q20 0 28 6.5t8 23.5v22q0 17 -8 24t-28 7q-21 0 -29 -7t-8 -24v-22z" />
    <glyph glyph-name="ogonek" unicode="&#x2db;" horiz-adv-x="484" 
d="M418 -24l-148 -59v-4h148v-184h-265q-27 0 -43.5 5t-26.5 14t-13.5 20t-3.5 23v52q0 28 13.5 47.5t45.5 30.5l155 55h138z" />
    <glyph glyph-name="tilde" unicode="&#x2dc;" horiz-adv-x="662" 
d="M66 876q20 25 52 39t77 14q42 0 74.5 -11t61.5 -24t57.5 -24t63.5 -11q34 0 69.5 14.5t65.5 53.5h9v-137q-23 -25 -62.5 -39t-81.5 -14q-39 0 -69.5 10.5t-59 23.5t-58 23.5t-66.5 10.5t-66 -14t-57 -51h-10v136z" />
    <glyph glyph-name="hungarumlaut" unicode="&#x2dd;" horiz-adv-x="702" 
d="M636 929l-150 -164h-173l114 164h209zM356 929l-125 -164h-165l89 164h201z" />
    <glyph glyph-name="uni0391" unicode="&#x391;" horiz-adv-x="692" 
d="M403 235l-61 211h-4l-121 -446h-201l214 678q7 22 32 22h150q26 0 34 -22l230 -678h-204l-20 69h-203l45 166h109z" />
    <glyph glyph-name="Delta" unicode="&#x394;" horiz-adv-x="726" 
d="M439 700q26 0 34 -22l214 -678h-648l218 678q7 22 32 22h150zM242 142h237l-114 396h-4z" />
    <glyph glyph-name="Omega" unicode="&#x3a9;" horiz-adv-x="796" 
d="M513 700q57 0 99 -13t69 -41.5t40.5 -74t13.5 -110.5v-67q0 -80 -42 -125t-112 -65v-20h148v-184h-307v243q68 13 97.5 42t29.5 89v75q0 32 -16 50t-45 18h-180q-29 0 -45 -18t-16 -50v-75q0 -60 29.5 -89t97.5 -42v-243h-307v184h148v20q-70 20 -112 65t-42 125v67
q0 65 13.5 110.5t40.5 74t69 41.5t99 13h230z" />
    <glyph glyph-name="mu" unicode="&#x3bc;" horiz-adv-x="681" 
d="M255 517v-333h144q35 0 35 37v296h189v-384q0 -133 -132 -133h-236v-271h-189v788h189z" />
    <glyph glyph-name="pi" unicode="&#x3c0;" horiz-adv-x="689" 
d="M531 517q92 0 92 -83v-434h-189v316q0 17 -15 17h-149q-15 0 -15 -17v-316h-189v434q0 83 92 83h373z" />
    <glyph glyph-name="Wgrave" unicode="&#x1e80;" horiz-adv-x="960" 
d="M61 0zM250 700v-479q0 -37 35 -37h69q35 0 35 37v479h91h91v-479q0 -37 35 -37h69q35 0 35 37v479h189v-567q0 -133 -132 -133h-199q-37 0 -58.5 16.5t-29.5 36.5q-8 -20 -29.5 -36.5t-58.5 -16.5h-199q-132 0 -132 133v567h189zM484 929l100 -164h-169l-140 164h209z
" />
    <glyph glyph-name="wgrave" unicode="&#x1e81;" horiz-adv-x="960" 
d="M61 0zM250 700v-479q0 -37 35 -37h69q35 0 35 37v479h91h91v-479q0 -37 35 -37h69q35 0 35 37v479h189v-567q0 -133 -132 -133h-199q-37 0 -58.5 16.5t-29.5 36.5q-8 -20 -29.5 -36.5t-58.5 -16.5h-199q-132 0 -132 133v567h189zM484 929l100 -164h-169l-140 164h209z
" />
    <glyph glyph-name="Wacute" unicode="&#x1e82;" horiz-adv-x="960" 
d="M61 0zM250 700v-479q0 -37 35 -37h69q35 0 35 37v479h91h91v-479q0 -37 35 -37h69q35 0 35 37v479h189v-567q0 -133 -132 -133h-199q-37 0 -58.5 16.5t-29.5 36.5q-8 -20 -29.5 -36.5t-58.5 -16.5h-199q-132 0 -132 133v567h189zM684 929l-140 -164h-169l100 164h209z
" />
    <glyph glyph-name="wacute" unicode="&#x1e83;" horiz-adv-x="960" 
d="M61 0zM250 700v-479q0 -37 35 -37h69q35 0 35 37v479h91h91v-479q0 -37 35 -37h69q35 0 35 37v479h189v-567q0 -133 -132 -133h-199q-37 0 -58.5 16.5t-29.5 36.5q-8 -20 -29.5 -36.5t-58.5 -16.5h-199q-132 0 -132 133v567h189zM684 929l-140 -164h-169l100 164h209z
" />
    <glyph glyph-name="Wdieresis" unicode="&#x1e84;" horiz-adv-x="960" 
d="M61 0zM250 700v-479q0 -37 35 -37h69q35 0 35 37v479h91h91v-479q0 -37 35 -37h69q35 0 35 37v479h189v-567q0 -133 -132 -133h-199q-37 0 -58.5 16.5t-29.5 36.5q-8 -20 -29.5 -36.5t-58.5 -16.5h-199q-132 0 -132 133v567h189zM689 929v-164h-159v164h159zM429 929
v-164h-159v164h159z" />
    <glyph glyph-name="wdieresis" unicode="&#x1e85;" horiz-adv-x="960" 
d="M61 0zM250 700v-479q0 -37 35 -37h69q35 0 35 37v479h91h91v-479q0 -37 35 -37h69q35 0 35 37v479h189v-567q0 -133 -132 -133h-199q-37 0 -58.5 16.5t-29.5 36.5q-8 -20 -29.5 -36.5t-58.5 -16.5h-199q-132 0 -132 133v567h189zM689 929v-164h-159v164h159zM429 929
v-164h-159v164h159z" />
    <glyph glyph-name="Ygrave" unicode="&#x1ef2;" horiz-adv-x="649" 
d="M46 0zM419 240v-240h-189v240h189zM235 700v-225q0 -37 35 -37h109q35 0 35 37v225h189v-296q0 -133 -132 -133h-293q-132 0 -132 133v296h189zM329 929l100 -164h-169l-140 164h209z" />
    <glyph glyph-name="ygrave" unicode="&#x1ef3;" horiz-adv-x="649" 
d="M46 0zM419 240v-240h-189v240h189zM235 700v-225q0 -37 35 -37h109q35 0 35 37v225h189v-296q0 -133 -132 -133h-293q-132 0 -132 133v296h189zM329 929l100 -164h-169l-140 164h209z" />
    <glyph glyph-name="endash" unicode="&#x2013;" horiz-adv-x="568" 
d="M546 437v-166h-525v166h525z" />
    <glyph glyph-name="emdash" unicode="&#x2014;" horiz-adv-x="778" 
d="M756 437v-166h-735v166h735z" />
    <glyph glyph-name="quoteleft" unicode="&#x2018;" horiz-adv-x="251" 
d="M210 700v-271h-169v109q0 78 36.5 120t100.5 42h32z" />
    <glyph glyph-name="quoteright" unicode="&#x2019;" horiz-adv-x="251" 
d="M210 700v-109q0 -78 -36.5 -120t-100.5 -42h-32v271h169z" />
    <glyph glyph-name="quotesinglbase" unicode="&#x201a;" horiz-adv-x="251" 
d="M210 184v-109q0 -78 -36.5 -120t-100.5 -42h-32v271h169z" />
    <glyph glyph-name="quotedblleft" unicode="&#x201c;" horiz-adv-x="502" 
d="M41 429zM210 700v-271h-169v109q0 78 36.5 120t100.5 42h32zM461 700v-271h-169v109q0 78 36.5 120t100.5 42h32z" />
    <glyph glyph-name="quotedblright" unicode="&#x201d;" horiz-adv-x="502" 
d="M41 429zM210 700v-109q0 -78 -36.5 -120t-100.5 -42h-32v271h169zM461 700v-109q0 -78 -36.5 -120t-100.5 -42h-32v271h169z" />
    <glyph glyph-name="quotedblbase" unicode="&#x201e;" horiz-adv-x="502" 
d="M41 0zM210 184v-109q0 -78 -36.5 -120t-100.5 -42h-32v271h169zM461 184v-109q0 -78 -36.5 -120t-100.5 -42h-32v271h169z" />
    <glyph glyph-name="dagger" unicode="&#x2020;" horiz-adv-x="535" 
d="M306 700v-164h163v-76h-163v-460h-76v460h-164v76h164v164h76z" />
    <glyph glyph-name="daggerdbl" unicode="&#x2021;" horiz-adv-x="535" 
d="M306 700v-164h163v-76h-163v-220h163v-76h-163v-164h-76v164h-164v76h164v220h-164v76h164v164h76z" />
    <glyph glyph-name="bullet" unicode="&#x2022;" horiz-adv-x="418" 
d="M66 377q0 69 32.5 107t110.5 38t110.5 -38t32.5 -107v-54q0 -69 -32.5 -107t-110.5 -38t-110.5 38t-32.5 107v54z" />
    <glyph glyph-name="ellipsis" unicode="&#x2026;" horiz-adv-x="1145" 
d="M255 184v-184h-169v184h169zM657 184v-184h-169v184h169zM1059 184v-184h-169v184h169z" />
    <glyph glyph-name="perthousand" unicode="&#x2030;" horiz-adv-x="1265" 
d="M52 0zM286 700q73 0 73 -73v-239q0 -73 -73 -73h-161q-73 0 -73 73v239q0 73 73 73h161zM156 437q0 -21 19 -21h60q20 0 20 21v141q0 21 -20 21h-60q-19 0 -19 -21v-141zM729 700l-420 -700h-129l420 700h129zM783 385q73 0 73 -73v-239q0 -73 -73 -73h-161q-73 0 -73 73
v239q0 73 73 73h161zM653 122q0 -21 19 -21h60q20 0 20 21v141q0 21 -20 21h-60q-19 0 -19 -21v-141zM1140 385q73 0 73 -73v-239q0 -73 -73 -73h-161q-73 0 -73 73v239q0 73 73 73h161zM1010 122q0 -21 19 -21h60q20 0 20 21v141q0 21 -20 21h-60q-19 0 -19 -21v-141z" />
    <glyph glyph-name="guilsinglleft" unicode="&#x2039;" horiz-adv-x="236" 
d="M214 604l-100 -247q-3 -6 -3 -13v-84q0 -6 3 -13l100 -247h-86l-101 225q-3 9 -4.5 16t-1.5 16v90q0 9 1.5 16t4.5 16l101 225h86z" />
    <glyph glyph-name="guilsinglright" unicode="&#x203a;" horiz-adv-x="236" 
d="M107 604l101 -225q3 -9 4.5 -16t1.5 -16v-90q0 -9 -1.5 -16t-4.5 -16l-101 -225h-86l100 247q3 7 3 13v84q0 7 -3 13l-100 247h86z" />
    <glyph glyph-name="fraction" unicode="&#x2044;" horiz-adv-x="190" 
d="M370 700l-420 -700h-129l420 700h129z" />
    <glyph glyph-name="zerosuperior" unicode="&#x2070;" horiz-adv-x="407" 
d="M50 315zM284 700q73 0 73 -73v-239q0 -73 -73 -73h-161q-73 0 -73 73v239q0 73 73 73h161zM154 437q0 -21 19 -21h60q20 0 20 21v141q0 21 -20 21h-60q-19 0 -19 -21v-141z" />
    <glyph glyph-name="foursuperior" unicode="&#x2074;" horiz-adv-x="378" 
d="M35 315zM309 701l-132 -198v-3h154v-185h-104v94h-158q-34 0 -34 34v28q0 8 2 13.5t7 12.5l140 204h125z" />
    <glyph glyph-name="fivesuperior" unicode="&#x2075;" horiz-adv-x="386" 
d="M47 315zM326 700v-101h-175q-6 0 -6 -6v-37q0 -6 6 -6h96q94 0 94 -90v-43q0 -102 -104 -102h-188v101h174q20 0 20 21v12q0 10 -3.5 14.5t-14.5 4.5h-141q-37 0 -37 39v157q0 36 37 36h242z" />
    <glyph glyph-name="sixsuperior" unicode="&#x2076;" horiz-adv-x="388" 
d="M49 315zM322 700v-101h-155q-20 0 -20 -21v-141q0 -21 20 -21h58q20 0 20 21v12q0 10 -3.5 14.5t-14.5 4.5h-63v82h85q51 0 72.5 -23t21.5 -67v-43q0 -102 -104 -102h-86q-104 0 -104 102v181q0 102 104 102h169z" />
    <glyph glyph-name="sevensuperior" unicode="&#x2077;" horiz-adv-x="336" 
d="M29 315zM274 700q34 0 34 -35v-37q0 -16 -8 -32l-122 -281h-120l127 284h-156v101h245z" />
    <glyph glyph-name="eightsuperior" unicode="&#x2078;" horiz-adv-x="398" 
d="M44 315zM243 700q104 0 104 -102v-23q0 -28 -7 -40.5t-21 -20.5q16 -7 25.5 -23t9.5 -42v-32q0 -102 -104 -102h-102q-104 0 -104 102v32q0 26 9.5 42t25.5 23q-14 8 -21 20.5t-7 40.5v23q0 102 104 102h88zM142 433q-2 -21 20 -21h74q20 0 20 21v11q0 8 -3.5 14t-14.5 6
h-78q-11 0 -14.5 -6t-3.5 -14v-11zM149 571q0 -8 3.5 -14t14.5 -6h64q11 0 14.5 6t3.5 14v11q0 21 -19 21h-62q-19 0 -19 -21v-11z" />
    <glyph glyph-name="ninesuperior" unicode="&#x2079;" horiz-adv-x="388" 
d="M45 315zM234 700q104 0 104 -102v-181q0 -102 -104 -102h-174v101h159q20 0 20 21v141q0 21 -20 21h-57q-19 0 -19 -21v-12q0 -10 3.5 -14.5t14.5 -4.5h61v-82h-83q-51 0 -72.5 23.5t-21.5 66.5v43q0 102 104 102h85z" />
    <glyph glyph-name="zeroinferior" unicode="&#x2080;" horiz-adv-x="407" 
d="M284 385q73 0 73 -73v-239q0 -73 -73 -73h-161q-73 0 -73 73v239q0 73 73 73h161zM154 122q0 -21 19 -21h60q20 0 20 21v141q0 21 -20 21h-60q-19 0 -19 -21v-141z" />
    <glyph glyph-name="oneinferior" unicode="&#x2081;" horiz-adv-x="221" 
d="M136 385q34 0 34 -35v-350h-104v274q0 10 -8 10h-29v101h107z" />
    <glyph glyph-name="twoinferior" unicode="&#x2082;" horiz-adv-x="386" 
d="M236 385q104 0 104 -102v-46q0 -35 -20 -59.5t-68 -24.5h-90q-18 0 -18 -19v-24q0 -9 7 -9h184v-101h-239q-50 0 -50 51v91q0 44 21.5 67t72.5 23h84q18 0 18 20v11q0 21 -20 21h-160v101h174z" />
    <glyph glyph-name="threeinferior" unicode="&#x2083;" horiz-adv-x="376" 
d="M222 385q104 0 104 -102v-23q0 -28 -7 -40.5t-21 -20.5q16 -7 25 -23t9 -42v-32q0 -102 -104 -102h-180v99h166q19 0 19 21v9q0 8 -3 14t-14 6h-164v87h157q11 0 14.5 6t3.5 14v9q0 21 -20 21h-159v99h174z" />
    <glyph glyph-name="fourinferior" unicode="&#x2084;" horiz-adv-x="378" 
d="M309 386l-132 -198v-3h154v-185h-104v94h-158q-34 0 -34 34v28q0 8 2 13.5t7 12.5l140 204h125z" />
    <glyph glyph-name="fiveinferior" unicode="&#x2085;" horiz-adv-x="386" 
d="M326 385v-101h-175q-6 0 -6 -6v-37q0 -6 6 -6h96q94 0 94 -90v-43q0 -102 -104 -102h-188v101h174q20 0 20 21v12q0 10 -3.5 14.5t-14.5 4.5h-141q-37 0 -37 39v157q0 36 37 36h242z" />
    <glyph glyph-name="sixinferior" unicode="&#x2086;" horiz-adv-x="388" 
d="M322 385v-101h-155q-20 0 -20 -21v-141q0 -21 20 -21h58q20 0 20 21v12q0 10 -3.5 14.5t-14.5 4.5h-63v82h85q51 0 72.5 -23t21.5 -67v-43q0 -102 -104 -102h-86q-104 0 -104 102v181q0 102 104 102h169z" />
    <glyph glyph-name="seveninferior" unicode="&#x2087;" horiz-adv-x="336" 
d="M274 385q34 0 34 -35v-37q0 -16 -8 -32l-122 -281h-120l127 284h-156v101h245z" />
    <glyph glyph-name="eightinferior" unicode="&#x2088;" horiz-adv-x="398" 
d="M243 385q104 0 104 -102v-23q0 -28 -7 -40.5t-21 -20.5q16 -7 25.5 -23t9.5 -42v-32q0 -102 -104 -102h-102q-104 0 -104 102v32q0 26 9.5 42t25.5 23q-14 8 -21 20.5t-7 40.5v23q0 102 104 102h88zM142 118q-2 -21 20 -21h74q20 0 20 21v11q0 8 -3.5 14t-14.5 6h-78
q-11 0 -14.5 -6t-3.5 -14v-11zM149 256q0 -8 3.5 -14t14.5 -6h64q11 0 14.5 6t3.5 14v11q0 21 -19 21h-62q-19 0 -19 -21v-11z" />
    <glyph glyph-name="nineinferior" unicode="&#x2089;" horiz-adv-x="388" 
d="M234 385q104 0 104 -102v-181q0 -102 -104 -102h-174v101h159q20 0 20 21v141q0 21 -20 21h-57q-19 0 -19 -21v-12q0 -10 3.5 -14.5t14.5 -4.5h61v-82h-83q-51 0 -72.5 23.5t-21.5 66.5v43q0 102 104 102h85z" />
    <glyph glyph-name="Euro" unicode="&#x20ac;" horiz-adv-x="676" 
d="M119 430q4 64 23.5 114t56.5 84.5t93.5 53t133.5 18.5h184l-53 -183h-128q-54 0 -82.5 -19.5t-36.5 -67.5h222l-45 -156h-178q8 -51 36 -70.5t84 -19.5h156v-184h-159q-78 0 -134.5 18.5t-94 53.5t-57 86t-22.5 116h-52v156h53z" />
    <glyph glyph-name="uni20B9" unicode="&#x20b9;" horiz-adv-x="639" 
d="M596 486v-153h-67v-10q0 -51 -19.5 -81t-51.5 -39l83 -203h-178l-92 204v75h47q20 0 26.5 10.5t6.5 25.5v18h-309v153h554zM596 700v-183h-554v183h554z" />
    <glyph glyph-name="uni20BA" unicode="&#x20ba;" horiz-adv-x="659" 
d="M248 700v-131l329 60v-156l-329 -60v-212q0 -17 15 -17h52q65 0 93.5 28t28.5 101v30h169v-39q0 -72 -14 -128.5t-47.5 -95.5t-89 -59.5t-137.5 -20.5h-197q-62 0 -62 62v317l-36 -6v156l36 6v165h189z" />
    <glyph glyph-name="uni20BD" unicode="&#x20bd;" horiz-adv-x="711" 
d="M465 700q189 0 189 -186v-41q0 -92 -47 -146t-142 -54h-128v156h106q20 0 26.5 10.5t6.5 25.5v21q0 38 -36 38h-119q-15 0 -15 -17v-507h-189v64h-86v156h86v53h-86v156h86v209q0 62 62 62h286zM645 220v-156h-308v156h308z" />
    <glyph glyph-name="uni2117" unicode="&#x2117;" horiz-adv-x="782" 
d="M537 800q50 0 86.5 -15t60 -42.5t35 -66t11.5 -86.5v-480q0 -48 -11.5 -86.5t-35 -66t-60 -42.5t-86.5 -15h-292q-50 0 -86.5 15t-60 42.5t-35 66t-11.5 86.5v480q0 48 11.5 86.5t35 66t60 42.5t86.5 15h292zM170 115q0 -48 19.5 -74.5t57.5 -26.5h288q38 0 57.5 26.5
t19.5 74.5v470q0 46 -19.5 73.5t-57.5 27.5h-288q-38 0 -57.5 -27.5t-19.5 -73.5v-470zM444 545q105 0 105 -103v-23q0 -51 -26 -81.5t-79 -30.5h-71v88h59q11 0 14.5 5.5t3.5 14.5v11q0 21 -20 21h-66q-8 0 -8 -9v-282h-105v355q0 34 34 34h159z" />
    <glyph glyph-name="trademark" unicode="&#x2122;" horiz-adv-x="1055" 
d="M391 700v-120h-350v120h350zM278 560v-317h-123v317h123zM658 700q24 0 38 -10.5t19 -24.5q6 14 20 24.5t38 10.5h130q86 0 86 -87v-370h-123v313q0 24 -23 24h-45q-23 0 -23 -24v-313h-60h-59v313q0 24 -23 24h-45q-23 0 -23 -24v-313h-123v370q0 87 86 87h130z" />
    <glyph glyph-name="onethird" unicode="&#x2153;" horiz-adv-x="818" 
d="M52 0zM159 700q34 0 34 -35v-350h-104v274q0 10 -8 10h-29v101h107zM614 700l-420 -700h-129l420 700h129zM656 385q104 0 104 -102v-23q0 -28 -7 -40.5t-21 -20.5q16 -7 25 -23t9 -42v-32q0 -102 -104 -102h-180v99h166q19 0 19 21v9q0 8 -3 14t-14 6h-164v87h157
q11 0 14.5 6t3.5 14v9q0 21 -20 21h-159v99h174z" />
    <glyph glyph-name="twothirds" unicode="&#x2154;" horiz-adv-x="966" 
d="M52 0zM242 700q104 0 104 -102v-46q0 -35 -20 -59.5t-68 -24.5h-90q-18 0 -18 -19v-24q0 -9 7 -9h184v-101h-239q-50 0 -50 51v91q0 44 21.5 67t72.5 23h84q18 0 18 20v11q0 21 -20 21h-160v101h174zM762 700l-420 -700h-129l420 700h129zM804 385q104 0 104 -102v-23
q0 -28 -7 -40.5t-21 -20.5q16 -7 25 -23t9 -42v-32q0 -102 -104 -102h-180v99h166q19 0 19 21v9q0 8 -3 14t-14 6h-164v87h157q11 0 14.5 6t3.5 14v9q0 21 -20 21h-159v99h174z" />
    <glyph glyph-name="uni2155" unicode="&#x2155;" horiz-adv-x="827" 
d="M52 0zM159 700q34 0 34 -35v-350h-104v274q0 10 -8 10h-29v101h107zM614 700l-420 -700h-129l420 700h129zM760 385v-101h-175q-6 0 -6 -6v-37q0 -6 6 -6h96q94 0 94 -90v-43q0 -102 -104 -102h-188v101h174q20 0 20 21v12q0 10 -3.5 14.5t-14.5 4.5h-141q-37 0 -37 39
v157q0 36 37 36h242z" />
    <glyph glyph-name="uni2156" unicode="&#x2156;" horiz-adv-x="975" 
d="M52 0zM242 700q104 0 104 -102v-46q0 -35 -20 -59.5t-68 -24.5h-90q-18 0 -18 -19v-24q0 -9 7 -9h184v-101h-239q-50 0 -50 51v91q0 44 21.5 67t72.5 23h84q18 0 18 20v11q0 21 -20 21h-160v101h174zM762 700l-420 -700h-129l420 700h129zM908 385v-101h-175q-6 0 -6 -6
v-37q0 -6 6 -6h96q94 0 94 -90v-43q0 -102 -104 -102h-188v101h174q20 0 20 21v12q0 10 -3.5 14.5t-14.5 4.5h-141q-37 0 -37 39v157q0 36 37 36h242z" />
    <glyph glyph-name="uni2157" unicode="&#x2157;" horiz-adv-x="963" 
d="M52 0zM226 700q104 0 104 -102v-23q0 -28 -7 -40.5t-21 -20.5q16 -7 25 -23t9 -42v-32q0 -102 -104 -102h-180v99h166q19 0 19 21v9q0 8 -3 14t-14 6h-164v87h157q11 0 14.5 6t3.5 14v9q0 21 -20 21h-159v99h174zM750 700l-420 -700h-129l420 700h129zM896 385v-101h-175
q-6 0 -6 -6v-37q0 -6 6 -6h96q94 0 94 -90v-43q0 -102 -104 -102h-188v101h174q20 0 20 21v12q0 10 -3.5 14.5t-14.5 4.5h-141q-37 0 -37 39v157q0 36 37 36h242z" />
    <glyph glyph-name="uni2158" unicode="&#x2158;" horiz-adv-x="978" 
d="M52 0zM326 701l-132 -198v-3h154v-185h-104v94h-158q-34 0 -34 34v28q0 8 2 13.5t7 12.5l140 204h125zM765 700l-420 -700h-129l420 700h129zM911 385v-101h-175q-6 0 -6 -6v-37q0 -6 6 -6h96q94 0 94 -90v-43q0 -102 -104 -102h-188v101h174q20 0 20 21v12
q0 10 -3.5 14.5t-14.5 4.5h-141q-37 0 -37 39v157q0 36 37 36h242z" />
    <glyph glyph-name="uni2159" unicode="&#x2159;" horiz-adv-x="799" 
d="M52 0zM159 700q34 0 34 -35v-350h-104v274q0 10 -8 10h-29v101h107zM614 700l-420 -700h-129l420 700h129zM726 385v-101h-155q-20 0 -20 -21v-141q0 -21 20 -21h58q20 0 20 21v12q0 10 -3.5 14.5t-14.5 4.5h-63v82h85q51 0 72.5 -23t21.5 -67v-43q0 -102 -104 -102h-86
q-104 0 -104 102v181q0 102 104 102h169z" />
    <glyph glyph-name="uni215A" unicode="&#x215a;" horiz-adv-x="916" 
d="M52 0zM331 700v-101h-175q-6 0 -6 -6v-37q0 -6 6 -6h96q94 0 94 -90v-43q0 -102 -104 -102h-188v101h174q20 0 20 21v12q0 10 -3.5 14.5t-14.5 4.5h-141q-37 0 -37 39v157q0 36 37 36h242zM731 700l-420 -700h-129l420 700h129zM843 385v-101h-155q-20 0 -20 -21v-141
q0 -21 20 -21h58q20 0 20 21v12q0 10 -3.5 14.5t-14.5 4.5h-63v82h85q51 0 72.5 -23t21.5 -67v-43q0 -102 -104 -102h-86q-104 0 -104 102v181q0 102 104 102h169z" />
    <glyph glyph-name="oneeighth" unicode="&#x215b;" horiz-adv-x="810" 
d="M52 0zM159 700q34 0 34 -35v-350h-104v274q0 10 -8 10h-29v101h107zM614 700l-420 -700h-129l420 700h129zM647 385q104 0 104 -102v-23q0 -28 -7 -40.5t-21 -20.5q16 -7 25.5 -23t9.5 -42v-32q0 -102 -104 -102h-102q-104 0 -104 102v32q0 26 9.5 42t25.5 23
q-14 8 -21 20.5t-7 40.5v23q0 102 104 102h88zM546 118q-2 -21 20 -21h74q20 0 20 21v11q0 8 -3.5 14t-14.5 6h-78q-11 0 -14.5 -6t-3.5 -14v-11zM553 256q0 -8 3.5 -14t14.5 -6h64q11 0 14.5 6t3.5 14v11q0 21 -19 21h-62q-19 0 -19 -21v-11z" />
    <glyph glyph-name="threeeighths" unicode="&#x215c;" horiz-adv-x="916" 
d="M52 0zM226 700q104 0 104 -102v-23q0 -28 -7 -40.5t-21 -20.5q16 -7 25 -23t9 -42v-32q0 -102 -104 -102h-180v99h166q19 0 19 21v9q0 8 -3 14t-14 6h-164v87h157q11 0 14.5 6t3.5 14v9q0 21 -20 21h-159v99h174zM720 700l-420 -700h-129l420 700h129zM753 385
q104 0 104 -102v-23q0 -28 -7 -40.5t-21 -20.5q16 -7 25.5 -23t9.5 -42v-32q0 -102 -104 -102h-102q-104 0 -104 102v32q0 26 9.5 42t25.5 23q-14 8 -21 20.5t-7 40.5v23q0 102 104 102h88zM652 118q-2 -21 20 -21h74q20 0 20 21v11q0 8 -3.5 14t-14.5 6h-78q-11 0 -14.5 -6
t-3.5 -14v-11zM659 256q0 -8 3.5 -14t14.5 -6h64q11 0 14.5 6t3.5 14v11q0 21 -19 21h-62q-19 0 -19 -21v-11z" />
    <glyph glyph-name="fiveeighths" unicode="&#x215d;" horiz-adv-x="927" 
d="M52 0zM331 700v-101h-175q-6 0 -6 -6v-37q0 -6 6 -6h96q94 0 94 -90v-43q0 -102 -104 -102h-188v101h174q20 0 20 21v12q0 10 -3.5 14.5t-14.5 4.5h-141q-37 0 -37 39v157q0 36 37 36h242zM731 700l-420 -700h-129l420 700h129zM764 385q104 0 104 -102v-23
q0 -28 -7 -40.5t-21 -20.5q16 -7 25.5 -23t9.5 -42v-32q0 -102 -104 -102h-102q-104 0 -104 102v32q0 26 9.5 42t25.5 23q-14 8 -21 20.5t-7 40.5v23q0 102 104 102h88zM663 118q-2 -21 20 -21h74q20 0 20 21v11q0 8 -3.5 14t-14.5 6h-78q-11 0 -14.5 -6t-3.5 -14v-11z
M670 256q0 -8 3.5 -14t14.5 -6h64q11 0 14.5 6t3.5 14v11q0 21 -19 21h-62q-19 0 -19 -21v-11z" />
    <glyph glyph-name="seveneighths" unicode="&#x215e;" horiz-adv-x="875" 
d="M52 0zM297 700q34 0 34 -35v-37q0 -16 -8 -32l-122 -281h-120l127 284h-156v101h245zM679 700l-420 -700h-129l420 700h129zM712 385q104 0 104 -102v-23q0 -28 -7 -40.5t-21 -20.5q16 -7 25.5 -23t9.5 -42v-32q0 -102 -104 -102h-102q-104 0 -104 102v32q0 26 9.5 42
t25.5 23q-14 8 -21 20.5t-7 40.5v23q0 102 104 102h88zM611 118q-2 -21 20 -21h74q20 0 20 21v11q0 8 -3.5 14t-14.5 6h-78q-11 0 -14.5 -6t-3.5 -14v-11zM618 256q0 -8 3.5 -14t14.5 -6h64q11 0 14.5 6t3.5 14v11q0 21 -19 21h-62q-19 0 -19 -21v-11z" />
    <glyph glyph-name="partialdiff" unicode="&#x2202;" horiz-adv-x="510" 
d="M209 693q11 2 23.5 4t26.5 2q42 0 81 -16.5t69 -53.5t48 -96.5t18 -144.5q0 -75 -11 -147t-38 -129t-71.5 -92t-110.5 -35q-109 0 -159 57.5t-50 164.5q0 65 14 110.5t40 74t61.5 41.5t79.5 13q48 0 86 -23t58 -61q2 10 2 19.5v24.5q0 90 -37 137t-97 47q-16 0 -33 -5
v108zM358 260q-6 17 -15 31t-23.5 24.5t-34.5 16.5t-49 6q-45 0 -71.5 -31t-26.5 -102q0 -57 27.5 -86t70.5 -29q105 0 122 170z" />
    <glyph glyph-name="product" unicode="&#x220f;" horiz-adv-x="714" 
d="M648 750v-1021h-114v907h-354v-907h-114v1021h582z" />
    <glyph glyph-name="summation" unicode="&#x2211;" horiz-adv-x="604" 
d="M573 700v-115h-369l198 -359l-198 -361h369v-114h-543v19l261 456l-261 455v19h543z" />
    <glyph glyph-name="minus" unicode="&#x2212;" horiz-adv-x="742" 
d="M676 406v-114h-610v114h610z" />
    <glyph glyph-name="radical" unicode="&#x221a;" horiz-adv-x="591" 
d="M208 406l80 -282h2l168 576h114l-197 -667q-10 -33 -48 -33h-76q-38 0 -48 33l-77 259h-96v114h178z" />
    <glyph glyph-name="infinity" unicode="&#x221e;" horiz-adv-x="939" 
d="M467 425q22 23 46.5 42t52.5 32.5t61 21t74 7.5q42 0 77.5 -12.5t62 -37t41.5 -61.5t15 -85t-15 -84.5t-41 -61t-62 -37.5t-78 -13t-75.5 7.5t-61.5 21t-52 32t-45 40.5q-35 -45 -90 -73t-137 -28q-43 0 -79.5 13t-63 37.5t-41.5 61t-15 84.5t15.5 85t42 61.5t63 37
t78.5 12.5q41 0 74 -7.5t60 -21t49.5 -32.5t43.5 -42zM415 328q-17 18 -33.5 33t-35 26t-40 17t-47.5 6q-51 0 -74 -22t-23 -56q0 -40 22 -61t75 -21q28 0 51 6.5t42 17.5t34.5 25t28.5 29zM525 328q13 -15 28.5 -29t34.5 -25t41.5 -17.5t49.5 -6.5q54 0 77 21t23 61
q0 34 -23.5 56t-76.5 22q-51 0 -86.5 -23t-67.5 -59z" />
    <glyph glyph-name="integral" unicode="&#x222b;" horiz-adv-x="379" 
d="M379 929v-114h-53q-38 0 -57.5 -27.5t-19.5 -73.5v-775q0 -48 -11.5 -86.5t-35 -66t-60 -42.5t-86.5 -15h-55v114h53q38 0 57.5 26.5t19.5 74.5v775q0 48 11.5 86.5t35 66t60 42.5t86.5 15h55z" />
    <glyph glyph-name="approxequal" unicode="&#x2248;" horiz-adv-x="742" 
d="M66 130zM66 495q23 29 60.5 45t88.5 16q48 0 85.5 -12.5t70.5 -28t66 -28t73 -12.5q39 0 80 17t76 62h10v-123q-27 -29 -72 -45t-94 -16q-45 0 -80 12t-68 27t-67 27t-76 12t-76 -16.5t-66 -58.5h-11v122zM66 255q23 29 60.5 45t88.5 16q48 0 85.5 -12.5t70.5 -28t66 -28
t73 -12.5q39 0 80 17t76 62h10v-123q-27 -29 -72 -45t-94 -16q-45 0 -80 12t-68 27t-67 27t-76 12t-76 -16.5t-66 -58.5h-11v122z" />
    <glyph glyph-name="notequal" unicode="&#x2260;" horiz-adv-x="742" 
d="M645 700l-83 -144h114v-114h-179l-106 -186h285v-114h-350l-81 -142h-149l81 142h-111v114h176l106 186h-282v114h347l83 144h149z" />
    <glyph glyph-name="lessequal" unicode="&#x2264;" horiz-adv-x="742" 
d="M66 0zM676 700v-114l-486 -141v-2l486 -141v-114l-577 170q-33 10 -33 48v76q0 38 33 48zM676 114v-114h-610v114h610z" />
    <glyph glyph-name="greaterequal" unicode="&#x2265;" horiz-adv-x="742" 
d="M66 0zM643 530q33 -10 33 -48v-76q0 -38 -33 -48l-577 -170v114l486 141v2l-486 141v114zM676 114v-114h-610v114h610z" />
    <glyph glyph-name="lozenge" unicode="&#x25ca;" horiz-adv-x="491" 
d="M284 700q38 0 48 -33l93 -317l-93 -317q-10 -33 -48 -33h-76q-38 0 -48 33l-94 317l94 317q10 33 48 33h76zM179 350l66 -226h2l65 226l-65 226h-2z" />
    <glyph glyph-name="nonmarkingreturn" horiz-adv-x="350" 
 />
    <glyph glyph-name="uni0017" horiz-adv-x="455" 
 />
    <glyph glyph-name=".ttfautohint" horiz-adv-x="455" 
d="M0 0z" />
    </font>
</defs>
</svg>
